%TF.GenerationSoftware,KiCad,Pcbnew,(6.0.4)*%
%TF.CreationDate,2022-11-12T19:04:49-05:00*%
%TF.ProjectId,Chergo,43686572-676f-42e6-9b69-6361645f7063,rev?*%
%TF.SameCoordinates,Original*%
%TF.FileFunction,Legend,Top*%
%TF.FilePolarity,Positive*%
%FSLAX46Y46*%
G04 Gerber Fmt 4.6, Leading zero omitted, Abs format (unit mm)*
G04 Created by KiCad (PCBNEW (6.0.4)) date 2022-11-12 19:04:49*
%MOMM*%
%LPD*%
G01*
G04 APERTURE LIST*
%ADD10C,0.150000*%
%ADD11C,0.120000*%
G04 APERTURE END LIST*
D10*
%TO.C,K17*%
X164513358Y-130843990D02*
X164090739Y-131750298D01*
X163995467Y-130602494D02*
X164142389Y-131301507D01*
X163572849Y-131508802D02*
X164332235Y-131232408D01*
X163132317Y-130200001D02*
X163650207Y-130441497D01*
X163391262Y-130320749D02*
X162968644Y-131227057D01*
X163115333Y-131137833D01*
X163241897Y-131091768D01*
X163348337Y-131088860D01*
X162407596Y-130965436D02*
X161803391Y-130683690D01*
X162614427Y-129958505D01*
%TO.C,K16*%
X141734525Y-122188402D02*
X141425508Y-123139458D01*
X141191064Y-122011820D02*
X141422079Y-122687717D01*
X140882047Y-122962877D02*
X141602089Y-122595997D01*
X140285296Y-121717519D02*
X140828757Y-121894100D01*
X140557027Y-121805809D02*
X140248010Y-122756866D01*
X140382732Y-122650431D01*
X140502739Y-122589284D01*
X140608031Y-122573426D01*
X139161088Y-122403703D02*
X139342242Y-122462564D01*
X139447534Y-122446706D01*
X139507537Y-122416132D01*
X139642259Y-122309697D01*
X139746408Y-122143259D01*
X139864129Y-121780951D01*
X139848270Y-121675659D01*
X139817697Y-121615656D01*
X139741835Y-121540937D01*
X139560682Y-121482077D01*
X139455390Y-121497935D01*
X139395386Y-121528509D01*
X139320668Y-121604370D01*
X139247092Y-121830812D01*
X139262951Y-121936104D01*
X139293524Y-121996108D01*
X139369386Y-122070826D01*
X139550539Y-122129687D01*
X139655831Y-122113828D01*
X139715835Y-122083255D01*
X139790553Y-122007393D01*
%TO.C,K15*%
X143532657Y-98669759D02*
X143532657Y-97669759D01*
X144104085Y-98669759D02*
X143675514Y-98098331D01*
X144104085Y-97669759D02*
X143532657Y-98241188D01*
X145056466Y-98669759D02*
X144485038Y-98669759D01*
X144770752Y-98669759D02*
X144770752Y-97669759D01*
X144675514Y-97812617D01*
X144580276Y-97907855D01*
X144485038Y-97955474D01*
X145961228Y-97669759D02*
X145485038Y-97669759D01*
X145437419Y-98145950D01*
X145485038Y-98098331D01*
X145580276Y-98050712D01*
X145818371Y-98050712D01*
X145913609Y-98098331D01*
X145961228Y-98145950D01*
X146008847Y-98241188D01*
X146008847Y-98479283D01*
X145961228Y-98574521D01*
X145913609Y-98622140D01*
X145818371Y-98669759D01*
X145580276Y-98669759D01*
X145485038Y-98622140D01*
X145437419Y-98574521D01*
%TO.C,K14*%
X124482657Y-95621759D02*
X124482657Y-94621759D01*
X125054085Y-95621759D02*
X124625514Y-95050331D01*
X125054085Y-94621759D02*
X124482657Y-95193188D01*
X126006466Y-95621759D02*
X125435038Y-95621759D01*
X125720752Y-95621759D02*
X125720752Y-94621759D01*
X125625514Y-94764617D01*
X125530276Y-94859855D01*
X125435038Y-94907474D01*
X126863609Y-94955093D02*
X126863609Y-95621759D01*
X126625514Y-94574140D02*
X126387419Y-95288426D01*
X127006466Y-95288426D01*
%TO.C,K13*%
X105432657Y-91303759D02*
X105432657Y-90303759D01*
X106004085Y-91303759D02*
X105575514Y-90732331D01*
X106004085Y-90303759D02*
X105432657Y-90875188D01*
X106956466Y-91303759D02*
X106385038Y-91303759D01*
X106670752Y-91303759D02*
X106670752Y-90303759D01*
X106575514Y-90446617D01*
X106480276Y-90541855D01*
X106385038Y-90589474D01*
X107289800Y-90303759D02*
X107908847Y-90303759D01*
X107575514Y-90684712D01*
X107718371Y-90684712D01*
X107813609Y-90732331D01*
X107861228Y-90779950D01*
X107908847Y-90875188D01*
X107908847Y-91113283D01*
X107861228Y-91208521D01*
X107813609Y-91256140D01*
X107718371Y-91303759D01*
X107432657Y-91303759D01*
X107337419Y-91256140D01*
X107289800Y-91208521D01*
%TO.C,K12*%
X86382657Y-95113759D02*
X86382657Y-94113759D01*
X86954085Y-95113759D02*
X86525514Y-94542331D01*
X86954085Y-94113759D02*
X86382657Y-94685188D01*
X87906466Y-95113759D02*
X87335038Y-95113759D01*
X87620752Y-95113759D02*
X87620752Y-94113759D01*
X87525514Y-94256617D01*
X87430276Y-94351855D01*
X87335038Y-94399474D01*
X88287419Y-94208998D02*
X88335038Y-94161379D01*
X88430276Y-94113759D01*
X88668371Y-94113759D01*
X88763609Y-94161379D01*
X88811228Y-94208998D01*
X88858847Y-94304236D01*
X88858847Y-94399474D01*
X88811228Y-94542331D01*
X88239800Y-95113759D01*
X88858847Y-95113759D01*
%TO.C,K11*%
X67332657Y-101971759D02*
X67332657Y-100971759D01*
X67904085Y-101971759D02*
X67475514Y-101400331D01*
X67904085Y-100971759D02*
X67332657Y-101543188D01*
X68856466Y-101971759D02*
X68285038Y-101971759D01*
X68570752Y-101971759D02*
X68570752Y-100971759D01*
X68475514Y-101114617D01*
X68380276Y-101209855D01*
X68285038Y-101257474D01*
X69808847Y-101971759D02*
X69237419Y-101971759D01*
X69523133Y-101971759D02*
X69523133Y-100971759D01*
X69427895Y-101114617D01*
X69332657Y-101209855D01*
X69237419Y-101257474D01*
%TO.C,K10*%
X143532657Y-79619759D02*
X143532657Y-78619759D01*
X144104085Y-79619759D02*
X143675514Y-79048331D01*
X144104085Y-78619759D02*
X143532657Y-79191188D01*
X145056466Y-79619759D02*
X144485038Y-79619759D01*
X144770752Y-79619759D02*
X144770752Y-78619759D01*
X144675514Y-78762617D01*
X144580276Y-78857855D01*
X144485038Y-78905474D01*
X145675514Y-78619759D02*
X145770752Y-78619759D01*
X145865990Y-78667379D01*
X145913609Y-78714998D01*
X145961228Y-78810236D01*
X146008847Y-79000712D01*
X146008847Y-79238807D01*
X145961228Y-79429283D01*
X145913609Y-79524521D01*
X145865990Y-79572140D01*
X145770752Y-79619759D01*
X145675514Y-79619759D01*
X145580276Y-79572140D01*
X145532657Y-79524521D01*
X145485038Y-79429283D01*
X145437419Y-79238807D01*
X145437419Y-79000712D01*
X145485038Y-78810236D01*
X145532657Y-78714998D01*
X145580276Y-78667379D01*
X145675514Y-78619759D01*
%TO.C,K9*%
X124958847Y-76571759D02*
X124958847Y-75571759D01*
X125530276Y-76571759D02*
X125101704Y-76000331D01*
X125530276Y-75571759D02*
X124958847Y-76143188D01*
X126006466Y-76571759D02*
X126196943Y-76571759D01*
X126292181Y-76524140D01*
X126339800Y-76476521D01*
X126435038Y-76333664D01*
X126482657Y-76143188D01*
X126482657Y-75762236D01*
X126435038Y-75666998D01*
X126387419Y-75619379D01*
X126292181Y-75571759D01*
X126101704Y-75571759D01*
X126006466Y-75619379D01*
X125958847Y-75666998D01*
X125911228Y-75762236D01*
X125911228Y-76000331D01*
X125958847Y-76095569D01*
X126006466Y-76143188D01*
X126101704Y-76190807D01*
X126292181Y-76190807D01*
X126387419Y-76143188D01*
X126435038Y-76095569D01*
X126482657Y-76000331D01*
%TO.C,K8*%
X105908847Y-72253759D02*
X105908847Y-71253759D01*
X106480276Y-72253759D02*
X106051704Y-71682331D01*
X106480276Y-71253759D02*
X105908847Y-71825188D01*
X107051704Y-71682331D02*
X106956466Y-71634712D01*
X106908847Y-71587093D01*
X106861228Y-71491855D01*
X106861228Y-71444236D01*
X106908847Y-71348998D01*
X106956466Y-71301379D01*
X107051704Y-71253759D01*
X107242181Y-71253759D01*
X107337419Y-71301379D01*
X107385038Y-71348998D01*
X107432657Y-71444236D01*
X107432657Y-71491855D01*
X107385038Y-71587093D01*
X107337419Y-71634712D01*
X107242181Y-71682331D01*
X107051704Y-71682331D01*
X106956466Y-71729950D01*
X106908847Y-71777569D01*
X106861228Y-71872807D01*
X106861228Y-72063283D01*
X106908847Y-72158521D01*
X106956466Y-72206140D01*
X107051704Y-72253759D01*
X107242181Y-72253759D01*
X107337419Y-72206140D01*
X107385038Y-72158521D01*
X107432657Y-72063283D01*
X107432657Y-71872807D01*
X107385038Y-71777569D01*
X107337419Y-71729950D01*
X107242181Y-71682331D01*
%TO.C,K7*%
X86858847Y-76063759D02*
X86858847Y-75063759D01*
X87430276Y-76063759D02*
X87001704Y-75492331D01*
X87430276Y-75063759D02*
X86858847Y-75635188D01*
X87763609Y-75063759D02*
X88430276Y-75063759D01*
X88001704Y-76063759D01*
%TO.C,K6*%
X67808847Y-82921759D02*
X67808847Y-81921759D01*
X68380276Y-82921759D02*
X67951704Y-82350331D01*
X68380276Y-81921759D02*
X67808847Y-82493188D01*
X69237419Y-81921759D02*
X69046943Y-81921759D01*
X68951704Y-81969379D01*
X68904085Y-82016998D01*
X68808847Y-82159855D01*
X68761228Y-82350331D01*
X68761228Y-82731283D01*
X68808847Y-82826521D01*
X68856466Y-82874140D01*
X68951704Y-82921759D01*
X69142181Y-82921759D01*
X69237419Y-82874140D01*
X69285038Y-82826521D01*
X69332657Y-82731283D01*
X69332657Y-82493188D01*
X69285038Y-82397950D01*
X69237419Y-82350331D01*
X69142181Y-82302712D01*
X68951704Y-82302712D01*
X68856466Y-82350331D01*
X68808847Y-82397950D01*
X68761228Y-82493188D01*
%TO.C,K5*%
X144008847Y-60569759D02*
X144008847Y-59569759D01*
X144580276Y-60569759D02*
X144151704Y-59998331D01*
X144580276Y-59569759D02*
X144008847Y-60141188D01*
X145485038Y-59569759D02*
X145008847Y-59569759D01*
X144961228Y-60045950D01*
X145008847Y-59998331D01*
X145104085Y-59950712D01*
X145342181Y-59950712D01*
X145437419Y-59998331D01*
X145485038Y-60045950D01*
X145532657Y-60141188D01*
X145532657Y-60379283D01*
X145485038Y-60474521D01*
X145437419Y-60522140D01*
X145342181Y-60569759D01*
X145104085Y-60569759D01*
X145008847Y-60522140D01*
X144961228Y-60474521D01*
%TO.C,K4*%
X124958847Y-57521759D02*
X124958847Y-56521759D01*
X125530276Y-57521759D02*
X125101704Y-56950331D01*
X125530276Y-56521759D02*
X124958847Y-57093188D01*
X126387419Y-56855093D02*
X126387419Y-57521759D01*
X126149323Y-56474140D02*
X125911228Y-57188426D01*
X126530276Y-57188426D01*
%TO.C,K3*%
X105908847Y-53203759D02*
X105908847Y-52203759D01*
X106480276Y-53203759D02*
X106051704Y-52632331D01*
X106480276Y-52203759D02*
X105908847Y-52775188D01*
X106813609Y-52203759D02*
X107432657Y-52203759D01*
X107099323Y-52584712D01*
X107242181Y-52584712D01*
X107337419Y-52632331D01*
X107385038Y-52679950D01*
X107432657Y-52775188D01*
X107432657Y-53013283D01*
X107385038Y-53108521D01*
X107337419Y-53156140D01*
X107242181Y-53203759D01*
X106956466Y-53203759D01*
X106861228Y-53156140D01*
X106813609Y-53108521D01*
%TO.C,K2*%
X86858847Y-57013759D02*
X86858847Y-56013759D01*
X87430276Y-57013759D02*
X87001704Y-56442331D01*
X87430276Y-56013759D02*
X86858847Y-56585188D01*
X87811228Y-56108998D02*
X87858847Y-56061379D01*
X87954085Y-56013759D01*
X88192181Y-56013759D01*
X88287419Y-56061379D01*
X88335038Y-56108998D01*
X88382657Y-56204236D01*
X88382657Y-56299474D01*
X88335038Y-56442331D01*
X87763609Y-57013759D01*
X88382657Y-57013759D01*
%TO.C,K1*%
X67808847Y-63871759D02*
X67808847Y-62871759D01*
X68380276Y-63871759D02*
X67951704Y-63300331D01*
X68380276Y-62871759D02*
X67808847Y-63443188D01*
X69332657Y-63871759D02*
X68761228Y-63871759D01*
X69046943Y-63871759D02*
X69046943Y-62871759D01*
X68951704Y-63014617D01*
X68856466Y-63109855D01*
X68761228Y-63157474D01*
%TO.C,U1*%
X170519038Y-86034759D02*
X170519038Y-86844283D01*
X170566657Y-86939521D01*
X170614276Y-86987140D01*
X170709514Y-87034759D01*
X170899990Y-87034759D01*
X170995228Y-86987140D01*
X171042847Y-86939521D01*
X171090466Y-86844283D01*
X171090466Y-86034759D01*
X172090466Y-87034759D02*
X171519038Y-87034759D01*
X171804752Y-87034759D02*
X171804752Y-86034759D01*
X171709514Y-86177617D01*
X171614276Y-86272855D01*
X171519038Y-86320474D01*
X157124665Y-98402971D02*
X157043853Y-98429908D01*
X156963040Y-98510720D01*
X156909166Y-98618470D01*
X156909166Y-98726220D01*
X156936103Y-98807032D01*
X157016915Y-98941719D01*
X157097727Y-99022531D01*
X157232414Y-99103343D01*
X157313227Y-99130281D01*
X157420976Y-99130281D01*
X157528726Y-99076406D01*
X157582601Y-99022531D01*
X157636475Y-98914781D01*
X157636475Y-98860907D01*
X157447914Y-98672345D01*
X157340164Y-98780094D01*
X157932787Y-98672345D02*
X157367101Y-98106659D01*
X157582601Y-97891160D01*
X157663413Y-97864223D01*
X157717288Y-97864223D01*
X157798100Y-97891160D01*
X157878912Y-97971972D01*
X157905849Y-98052785D01*
X157905849Y-98106659D01*
X157878912Y-98187472D01*
X157663413Y-98402971D01*
X158794784Y-97810348D02*
X158471535Y-98133597D01*
X158633159Y-97971972D02*
X158067474Y-97406287D01*
X158094411Y-97540974D01*
X158094411Y-97648724D01*
X158067474Y-97729536D01*
X159333532Y-97271600D02*
X159010283Y-97594849D01*
X159171907Y-97433224D02*
X158606222Y-96867539D01*
X158633159Y-97002226D01*
X158633159Y-97109976D01*
X158606222Y-97190788D01*
X183432540Y-81323343D02*
X183701914Y-81053969D01*
X183540289Y-81538842D02*
X183163166Y-80784595D01*
X183917413Y-81161719D01*
X183863538Y-80138098D02*
X183782726Y-80165035D01*
X183701914Y-80245847D01*
X183648039Y-80353597D01*
X183648039Y-80461346D01*
X183674976Y-80542159D01*
X183755788Y-80676846D01*
X183836601Y-80757658D01*
X183971288Y-80838470D01*
X184052100Y-80865407D01*
X184159849Y-80865407D01*
X184267599Y-80811533D01*
X184321474Y-80757658D01*
X184375349Y-80649908D01*
X184375349Y-80596033D01*
X184186787Y-80407472D01*
X184079037Y-80515221D01*
X184671660Y-80407472D02*
X184105975Y-79841786D01*
X184994909Y-80084223D01*
X184429223Y-79518537D01*
X185264283Y-79814849D02*
X184698597Y-79249163D01*
X184833284Y-79114476D01*
X184941034Y-79060602D01*
X185048784Y-79060602D01*
X185129596Y-79087539D01*
X185264283Y-79168351D01*
X185345095Y-79249163D01*
X185425907Y-79383850D01*
X185452845Y-79464663D01*
X185452845Y-79572412D01*
X185398970Y-79680162D01*
X185264283Y-79814849D01*
X183367101Y-105780534D02*
X183286289Y-105807472D01*
X183205477Y-105888284D01*
X183151602Y-105996033D01*
X183151602Y-106103783D01*
X183178540Y-106184595D01*
X183259352Y-106319282D01*
X183340164Y-106400094D01*
X183474851Y-106480907D01*
X183555663Y-106507844D01*
X183663413Y-106507844D01*
X183771162Y-106453969D01*
X183825037Y-106400094D01*
X183878912Y-106292345D01*
X183878912Y-106238470D01*
X183690350Y-106049908D01*
X183582601Y-106157658D01*
X184175223Y-106049908D02*
X183609538Y-105484223D01*
X184498472Y-105726659D01*
X183932787Y-105160974D01*
X184767846Y-105457285D02*
X184202161Y-104891600D01*
X184336848Y-104756913D01*
X184444597Y-104703038D01*
X184552347Y-104703038D01*
X184633159Y-104729976D01*
X184767846Y-104810788D01*
X184848658Y-104891600D01*
X184929471Y-105026287D01*
X184956408Y-105107099D01*
X184956408Y-105214849D01*
X184902533Y-105322598D01*
X184767846Y-105457285D01*
X183234072Y-63109688D02*
X183988320Y-63486812D01*
X183611196Y-62732565D01*
X184257694Y-62624815D02*
X184365443Y-62570940D01*
X184419318Y-62570940D01*
X184500130Y-62597878D01*
X184580943Y-62678690D01*
X184607880Y-62759502D01*
X184607880Y-62813377D01*
X184580943Y-62894189D01*
X184365443Y-63109688D01*
X183799758Y-62544003D01*
X183988320Y-62355441D01*
X184069132Y-62328504D01*
X184123007Y-62328504D01*
X184203819Y-62355441D01*
X184257694Y-62409316D01*
X184284631Y-62490128D01*
X184284631Y-62544003D01*
X184257694Y-62624815D01*
X184069132Y-62813377D01*
X184365443Y-61978317D02*
X184823379Y-62436253D01*
X184904191Y-62463191D01*
X184958066Y-62463191D01*
X185038878Y-62436253D01*
X185146628Y-62328504D01*
X185173565Y-62247691D01*
X185173565Y-62193817D01*
X185146628Y-62113004D01*
X184688692Y-61655069D01*
X185469877Y-61951380D02*
X185577626Y-61897505D01*
X185712313Y-61762818D01*
X185739251Y-61682006D01*
X185739251Y-61628131D01*
X185712313Y-61547319D01*
X185658439Y-61493444D01*
X185577626Y-61466507D01*
X185523752Y-61466507D01*
X185442939Y-61493444D01*
X185308252Y-61574256D01*
X185227440Y-61601194D01*
X185173565Y-61601194D01*
X185092753Y-61574256D01*
X185038878Y-61520382D01*
X185011941Y-61439569D01*
X185011941Y-61385695D01*
X185038878Y-61304882D01*
X185173565Y-61170195D01*
X185281315Y-61116321D01*
X183367101Y-67680534D02*
X183286289Y-67707472D01*
X183205477Y-67788284D01*
X183151602Y-67896033D01*
X183151602Y-68003783D01*
X183178540Y-68084595D01*
X183259352Y-68219282D01*
X183340164Y-68300094D01*
X183474851Y-68380907D01*
X183555663Y-68407844D01*
X183663413Y-68407844D01*
X183771162Y-68353969D01*
X183825037Y-68300094D01*
X183878912Y-68192345D01*
X183878912Y-68138470D01*
X183690350Y-67949908D01*
X183582601Y-68057658D01*
X184175223Y-67949908D02*
X183609538Y-67384223D01*
X184498472Y-67626659D01*
X183932787Y-67060974D01*
X184767846Y-67357285D02*
X184202161Y-66791600D01*
X184336848Y-66656913D01*
X184444597Y-66603038D01*
X184552347Y-66603038D01*
X184633159Y-66629976D01*
X184767846Y-66710788D01*
X184848658Y-66791600D01*
X184929471Y-66926287D01*
X184956408Y-67007099D01*
X184956408Y-67114849D01*
X184902533Y-67222598D01*
X184767846Y-67357285D01*
X157270665Y-103482971D02*
X157189853Y-103509908D01*
X157109040Y-103590720D01*
X157055166Y-103698470D01*
X157055166Y-103806220D01*
X157082103Y-103887032D01*
X157162915Y-104021719D01*
X157243727Y-104102531D01*
X157378414Y-104183343D01*
X157459227Y-104210281D01*
X157566976Y-104210281D01*
X157674726Y-104156406D01*
X157728601Y-104102531D01*
X157782475Y-103994781D01*
X157782475Y-103940907D01*
X157593914Y-103752345D01*
X157486164Y-103860094D01*
X158078787Y-103752345D02*
X157513101Y-103186659D01*
X157728601Y-102971160D01*
X157809413Y-102944223D01*
X157863288Y-102944223D01*
X157944100Y-102971160D01*
X158024912Y-103051972D01*
X158051849Y-103132785D01*
X158051849Y-103186659D01*
X158024912Y-103267472D01*
X157809413Y-103482971D01*
X158940784Y-102890348D02*
X158617535Y-103213597D01*
X158779159Y-103051972D02*
X158213474Y-102486287D01*
X158240411Y-102620974D01*
X158240411Y-102728724D01*
X158213474Y-102809536D01*
X158563660Y-102136101D02*
X158913846Y-101785915D01*
X158940784Y-102189976D01*
X159021596Y-102109163D01*
X159102408Y-102082226D01*
X159156283Y-102082226D01*
X159237095Y-102109163D01*
X159371782Y-102243850D01*
X159398719Y-102324663D01*
X159398719Y-102378537D01*
X159371782Y-102459350D01*
X159210158Y-102620974D01*
X159129345Y-102647911D01*
X159075471Y-102647911D01*
X183435731Y-76116152D02*
X183705105Y-75846778D01*
X183543480Y-76331651D02*
X183166357Y-75577404D01*
X183920604Y-75954528D01*
X184109166Y-75765966D02*
X183543480Y-75200281D01*
X183678167Y-75065594D01*
X183785917Y-75011719D01*
X183893666Y-75011719D01*
X183974479Y-75038656D01*
X184109166Y-75119468D01*
X184189978Y-75200281D01*
X184270790Y-75334968D01*
X184297727Y-75415780D01*
X184297727Y-75523529D01*
X184243853Y-75631279D01*
X184109166Y-75765966D01*
X184944225Y-74823157D02*
X184944225Y-74877032D01*
X184890350Y-74984781D01*
X184836475Y-75038656D01*
X184728726Y-75092531D01*
X184620976Y-75092531D01*
X184540164Y-75065594D01*
X184405477Y-74984781D01*
X184324665Y-74903969D01*
X184243853Y-74769282D01*
X184216915Y-74688470D01*
X184216915Y-74580720D01*
X184270790Y-74472971D01*
X184324665Y-74419096D01*
X184432414Y-74365221D01*
X184486289Y-74365221D01*
X185159724Y-74823157D02*
X185590723Y-74392159D01*
X185025037Y-73718724D02*
X185779284Y-74095847D01*
X185402161Y-73341600D01*
X186479657Y-73395475D02*
X186021721Y-73314663D01*
X186156408Y-73718724D02*
X185590723Y-73153038D01*
X185806222Y-72937539D01*
X185887034Y-72910602D01*
X185940909Y-72910602D01*
X186021721Y-72937539D01*
X186102533Y-73018351D01*
X186129471Y-73099163D01*
X186129471Y-73153038D01*
X186102533Y-73233850D01*
X185887034Y-73449350D01*
X186425782Y-72856727D02*
X186614344Y-72668165D01*
X186991467Y-72883664D02*
X186722093Y-73153038D01*
X186156408Y-72587353D01*
X186425782Y-72317979D01*
X187126154Y-72156354D02*
X186937593Y-72344916D01*
X187233904Y-72641228D02*
X186668219Y-72075542D01*
X186937593Y-71806168D01*
X157794039Y-75273597D02*
X157713227Y-75300534D01*
X157632414Y-75381346D01*
X157578540Y-75489096D01*
X157578540Y-75596846D01*
X157605477Y-75677658D01*
X157686289Y-75812345D01*
X157767101Y-75893157D01*
X157901788Y-75973969D01*
X157982601Y-76000907D01*
X158090350Y-76000907D01*
X158198100Y-75947032D01*
X158251975Y-75893157D01*
X158305849Y-75785407D01*
X158305849Y-75731533D01*
X158117288Y-75542971D01*
X158009538Y-75650720D01*
X158602161Y-75542971D02*
X158036475Y-74977285D01*
X158251975Y-74761786D01*
X158332787Y-74734849D01*
X158386662Y-74734849D01*
X158467474Y-74761786D01*
X158548286Y-74842598D01*
X158575223Y-74923411D01*
X158575223Y-74977285D01*
X158548286Y-75058098D01*
X158332787Y-75273597D01*
X159033159Y-74357725D02*
X159410283Y-74734849D01*
X158682973Y-74276913D02*
X158952347Y-74815661D01*
X159302533Y-74465475D01*
X157894039Y-85403597D02*
X157813227Y-85430534D01*
X157732414Y-85511346D01*
X157678540Y-85619096D01*
X157678540Y-85726846D01*
X157705477Y-85807658D01*
X157786289Y-85942345D01*
X157867101Y-86023157D01*
X158001788Y-86103969D01*
X158082601Y-86130907D01*
X158190350Y-86130907D01*
X158298100Y-86077032D01*
X158351975Y-86023157D01*
X158405849Y-85915407D01*
X158405849Y-85861533D01*
X158217288Y-85672971D01*
X158109538Y-85780720D01*
X158702161Y-85672971D02*
X158136475Y-85107285D01*
X158351975Y-84891786D01*
X158432787Y-84864849D01*
X158486662Y-84864849D01*
X158567474Y-84891786D01*
X158648286Y-84972598D01*
X158675223Y-85053411D01*
X158675223Y-85107285D01*
X158648286Y-85188098D01*
X158432787Y-85403597D01*
X158648286Y-84595475D02*
X159025410Y-84218351D01*
X159348658Y-85026473D01*
X157270665Y-111102971D02*
X157189853Y-111129908D01*
X157109040Y-111210720D01*
X157055166Y-111318470D01*
X157055166Y-111426220D01*
X157082103Y-111507032D01*
X157162915Y-111641719D01*
X157243727Y-111722531D01*
X157378414Y-111803343D01*
X157459227Y-111830281D01*
X157566976Y-111830281D01*
X157674726Y-111776406D01*
X157728601Y-111722531D01*
X157782475Y-111614781D01*
X157782475Y-111560907D01*
X157593914Y-111372345D01*
X157486164Y-111480094D01*
X158078787Y-111372345D02*
X157513101Y-110806659D01*
X157728601Y-110591160D01*
X157809413Y-110564223D01*
X157863288Y-110564223D01*
X157944100Y-110591160D01*
X158024912Y-110671972D01*
X158051849Y-110752785D01*
X158051849Y-110806659D01*
X158024912Y-110887472D01*
X157809413Y-111102971D01*
X158940784Y-110510348D02*
X158617535Y-110833597D01*
X158779159Y-110671972D02*
X158213474Y-110106287D01*
X158240411Y-110240974D01*
X158240411Y-110348724D01*
X158213474Y-110429536D01*
X158886909Y-109432852D02*
X158617535Y-109702226D01*
X158859971Y-109998537D01*
X158859971Y-109944663D01*
X158886909Y-109863850D01*
X159021596Y-109729163D01*
X159102408Y-109702226D01*
X159156283Y-109702226D01*
X159237095Y-109729163D01*
X159371782Y-109863850D01*
X159398719Y-109944663D01*
X159398719Y-109998537D01*
X159371782Y-110079350D01*
X159237095Y-110214037D01*
X159156283Y-110240974D01*
X159102408Y-110240974D01*
X183378665Y-108562971D02*
X183297853Y-108589908D01*
X183217040Y-108670720D01*
X183163166Y-108778470D01*
X183163166Y-108886220D01*
X183190103Y-108967032D01*
X183270915Y-109101719D01*
X183351727Y-109182531D01*
X183486414Y-109263343D01*
X183567227Y-109290281D01*
X183674976Y-109290281D01*
X183782726Y-109236406D01*
X183836601Y-109182531D01*
X183890475Y-109074781D01*
X183890475Y-109020907D01*
X183701914Y-108832345D01*
X183594164Y-108940094D01*
X184186787Y-108832345D02*
X183621101Y-108266659D01*
X183836601Y-108051160D01*
X183917413Y-108024223D01*
X183971288Y-108024223D01*
X184052100Y-108051160D01*
X184132912Y-108131972D01*
X184159849Y-108212785D01*
X184159849Y-108266659D01*
X184132912Y-108347472D01*
X183917413Y-108562971D01*
X185048784Y-107970348D02*
X184725535Y-108293597D01*
X184887159Y-108131972D02*
X184321474Y-107566287D01*
X184348411Y-107700974D01*
X184348411Y-107808724D01*
X184321474Y-107889536D01*
X184671660Y-107216101D02*
X185048784Y-106838977D01*
X185372032Y-107647099D01*
X183378665Y-85702971D02*
X183297853Y-85729908D01*
X183217040Y-85810720D01*
X183163166Y-85918470D01*
X183163166Y-86026220D01*
X183190103Y-86107032D01*
X183270915Y-86241719D01*
X183351727Y-86322531D01*
X183486414Y-86403343D01*
X183567227Y-86430281D01*
X183674976Y-86430281D01*
X183782726Y-86376406D01*
X183836601Y-86322531D01*
X183890475Y-86214781D01*
X183890475Y-86160907D01*
X183701914Y-85972345D01*
X183594164Y-86080094D01*
X184186787Y-85972345D02*
X183621101Y-85406659D01*
X183836601Y-85191160D01*
X183917413Y-85164223D01*
X183971288Y-85164223D01*
X184052100Y-85191160D01*
X184132912Y-85271972D01*
X184159849Y-85352785D01*
X184159849Y-85406659D01*
X184132912Y-85487472D01*
X183917413Y-85702971D01*
X184213724Y-84921786D02*
X184213724Y-84867911D01*
X184240662Y-84787099D01*
X184375349Y-84652412D01*
X184456161Y-84625475D01*
X184510036Y-84625475D01*
X184590848Y-84652412D01*
X184644723Y-84706287D01*
X184698597Y-84814037D01*
X184698597Y-85460534D01*
X185048784Y-85110348D01*
X184967971Y-84059789D02*
X184860222Y-84167539D01*
X184833284Y-84248351D01*
X184833284Y-84302226D01*
X184860222Y-84436913D01*
X184941034Y-84571600D01*
X185156533Y-84787099D01*
X185237345Y-84814037D01*
X185291220Y-84814037D01*
X185372032Y-84787099D01*
X185479782Y-84679350D01*
X185506719Y-84598537D01*
X185506719Y-84544663D01*
X185479782Y-84463850D01*
X185345095Y-84329163D01*
X185264283Y-84302226D01*
X185210408Y-84302226D01*
X185129596Y-84329163D01*
X185021846Y-84436913D01*
X184994909Y-84517725D01*
X184994909Y-84571600D01*
X185021846Y-84652412D01*
X183203074Y-70540687D02*
X183553260Y-70190501D01*
X183580198Y-70594562D01*
X183661010Y-70513749D01*
X183741822Y-70486812D01*
X183795697Y-70486812D01*
X183876509Y-70513749D01*
X184011196Y-70648436D01*
X184038133Y-70729249D01*
X184038133Y-70783123D01*
X184011196Y-70863936D01*
X183849572Y-71025560D01*
X183768759Y-71052497D01*
X183714885Y-71052497D01*
X183714885Y-70028876D02*
X184469132Y-70406000D01*
X184092008Y-69651753D01*
X184226695Y-69517066D02*
X184576881Y-69166879D01*
X184603819Y-69570940D01*
X184684631Y-69490128D01*
X184765443Y-69463191D01*
X184819318Y-69463191D01*
X184900130Y-69490128D01*
X185034817Y-69624815D01*
X185061755Y-69705627D01*
X185061755Y-69759502D01*
X185034817Y-69840314D01*
X184873193Y-70001939D01*
X184792381Y-70028876D01*
X184738506Y-70028876D01*
X185304191Y-69678690D02*
X185735190Y-69247691D01*
X185519691Y-68762818D02*
X185708252Y-68574256D01*
X186085376Y-68789756D02*
X185816002Y-69059130D01*
X185250317Y-68493444D01*
X185519691Y-68224070D01*
X186327813Y-68547319D02*
X185762127Y-67981634D01*
X186651061Y-68224070D01*
X186085376Y-67658385D01*
X183170790Y-73072971D02*
X183520976Y-72722785D01*
X183547914Y-73126846D01*
X183628726Y-73046033D01*
X183709538Y-73019096D01*
X183763413Y-73019096D01*
X183844225Y-73046033D01*
X183978912Y-73180720D01*
X184005849Y-73261533D01*
X184005849Y-73315407D01*
X183978912Y-73396220D01*
X183817288Y-73557844D01*
X183736475Y-73584781D01*
X183682601Y-73584781D01*
X183682601Y-72561160D02*
X184436848Y-72938284D01*
X184059724Y-72184037D01*
X184194411Y-72049350D02*
X184544597Y-71699163D01*
X184571535Y-72103224D01*
X184652347Y-72022412D01*
X184733159Y-71995475D01*
X184787034Y-71995475D01*
X184867846Y-72022412D01*
X185002533Y-72157099D01*
X185029471Y-72237911D01*
X185029471Y-72291786D01*
X185002533Y-72372598D01*
X184840909Y-72534223D01*
X184760097Y-72561160D01*
X184706222Y-72561160D01*
X157794039Y-87973597D02*
X157713227Y-88000534D01*
X157632414Y-88081346D01*
X157578540Y-88189096D01*
X157578540Y-88296846D01*
X157605477Y-88377658D01*
X157686289Y-88512345D01*
X157767101Y-88593157D01*
X157901788Y-88673969D01*
X157982601Y-88700907D01*
X158090350Y-88700907D01*
X158198100Y-88647032D01*
X158251975Y-88593157D01*
X158305849Y-88485407D01*
X158305849Y-88431533D01*
X158117288Y-88242971D01*
X158009538Y-88350720D01*
X158602161Y-88242971D02*
X158036475Y-87677285D01*
X158251975Y-87461786D01*
X158332787Y-87434849D01*
X158386662Y-87434849D01*
X158467474Y-87461786D01*
X158548286Y-87542598D01*
X158575223Y-87623411D01*
X158575223Y-87677285D01*
X158548286Y-87758098D01*
X158332787Y-87973597D01*
X158925410Y-87273224D02*
X158844597Y-87300162D01*
X158790723Y-87300162D01*
X158709910Y-87273224D01*
X158682973Y-87246287D01*
X158656036Y-87165475D01*
X158656036Y-87111600D01*
X158682973Y-87030788D01*
X158790723Y-86923038D01*
X158871535Y-86896101D01*
X158925410Y-86896101D01*
X159006222Y-86923038D01*
X159033159Y-86949976D01*
X159060097Y-87030788D01*
X159060097Y-87084663D01*
X159033159Y-87165475D01*
X158925410Y-87273224D01*
X158898472Y-87354037D01*
X158898472Y-87407911D01*
X158925410Y-87488724D01*
X159033159Y-87596473D01*
X159113971Y-87623411D01*
X159167846Y-87623411D01*
X159248658Y-87596473D01*
X159356408Y-87488724D01*
X159383345Y-87407911D01*
X159383345Y-87354037D01*
X159356408Y-87273224D01*
X159248658Y-87165475D01*
X159167846Y-87138537D01*
X159113971Y-87138537D01*
X159033159Y-87165475D01*
X183378665Y-111102971D02*
X183297853Y-111129908D01*
X183217040Y-111210720D01*
X183163166Y-111318470D01*
X183163166Y-111426220D01*
X183190103Y-111507032D01*
X183270915Y-111641719D01*
X183351727Y-111722531D01*
X183486414Y-111803343D01*
X183567227Y-111830281D01*
X183674976Y-111830281D01*
X183782726Y-111776406D01*
X183836601Y-111722531D01*
X183890475Y-111614781D01*
X183890475Y-111560907D01*
X183701914Y-111372345D01*
X183594164Y-111480094D01*
X184186787Y-111372345D02*
X183621101Y-110806659D01*
X183836601Y-110591160D01*
X183917413Y-110564223D01*
X183971288Y-110564223D01*
X184052100Y-110591160D01*
X184132912Y-110671972D01*
X184159849Y-110752785D01*
X184159849Y-110806659D01*
X184132912Y-110887472D01*
X183917413Y-111102971D01*
X185048784Y-110510348D02*
X184725535Y-110833597D01*
X184887159Y-110671972D02*
X184321474Y-110106287D01*
X184348411Y-110240974D01*
X184348411Y-110348724D01*
X184321474Y-110429536D01*
X184967971Y-109459789D02*
X184860222Y-109567539D01*
X184833284Y-109648351D01*
X184833284Y-109702226D01*
X184860222Y-109836913D01*
X184941034Y-109971600D01*
X185156533Y-110187099D01*
X185237345Y-110214037D01*
X185291220Y-110214037D01*
X185372032Y-110187099D01*
X185479782Y-110079350D01*
X185506719Y-109998537D01*
X185506719Y-109944663D01*
X185479782Y-109863850D01*
X185345095Y-109729163D01*
X185264283Y-109702226D01*
X185210408Y-109702226D01*
X185129596Y-109729163D01*
X185021846Y-109836913D01*
X184994909Y-109917725D01*
X184994909Y-109971600D01*
X185021846Y-110052412D01*
X183367101Y-93080534D02*
X183286289Y-93107472D01*
X183205477Y-93188284D01*
X183151602Y-93296033D01*
X183151602Y-93403783D01*
X183178540Y-93484595D01*
X183259352Y-93619282D01*
X183340164Y-93700094D01*
X183474851Y-93780907D01*
X183555663Y-93807844D01*
X183663413Y-93807844D01*
X183771162Y-93753969D01*
X183825037Y-93700094D01*
X183878912Y-93592345D01*
X183878912Y-93538470D01*
X183690350Y-93349908D01*
X183582601Y-93457658D01*
X184175223Y-93349908D02*
X183609538Y-92784223D01*
X184498472Y-93026659D01*
X183932787Y-92460974D01*
X184767846Y-92757285D02*
X184202161Y-92191600D01*
X184336848Y-92056913D01*
X184444597Y-92003038D01*
X184552347Y-92003038D01*
X184633159Y-92029976D01*
X184767846Y-92110788D01*
X184848658Y-92191600D01*
X184929471Y-92326287D01*
X184956408Y-92407099D01*
X184956408Y-92514849D01*
X184902533Y-92622598D01*
X184767846Y-92757285D01*
X157767101Y-80380534D02*
X157686289Y-80407472D01*
X157605477Y-80488284D01*
X157551602Y-80596033D01*
X157551602Y-80703783D01*
X157578540Y-80784595D01*
X157659352Y-80919282D01*
X157740164Y-81000094D01*
X157874851Y-81080907D01*
X157955663Y-81107844D01*
X158063413Y-81107844D01*
X158171162Y-81053969D01*
X158225037Y-81000094D01*
X158278912Y-80892345D01*
X158278912Y-80838470D01*
X158090350Y-80649908D01*
X157982601Y-80757658D01*
X158575223Y-80649908D02*
X158009538Y-80084223D01*
X158898472Y-80326659D01*
X158332787Y-79760974D01*
X159167846Y-80057285D02*
X158602161Y-79491600D01*
X158736848Y-79356913D01*
X158844597Y-79303038D01*
X158952347Y-79303038D01*
X159033159Y-79329976D01*
X159167846Y-79410788D01*
X159248658Y-79491600D01*
X159329471Y-79626287D01*
X159356408Y-79707099D01*
X159356408Y-79814849D01*
X159302533Y-79922598D01*
X159167846Y-80057285D01*
X183378665Y-77828971D02*
X183297853Y-77855908D01*
X183217040Y-77936720D01*
X183163166Y-78044470D01*
X183163166Y-78152220D01*
X183190103Y-78233032D01*
X183270915Y-78367719D01*
X183351727Y-78448531D01*
X183486414Y-78529343D01*
X183567227Y-78556281D01*
X183674976Y-78556281D01*
X183782726Y-78502406D01*
X183836601Y-78448531D01*
X183890475Y-78340781D01*
X183890475Y-78286907D01*
X183701914Y-78098345D01*
X183594164Y-78206094D01*
X184186787Y-78098345D02*
X183621101Y-77532659D01*
X183836601Y-77317160D01*
X183917413Y-77290223D01*
X183971288Y-77290223D01*
X184052100Y-77317160D01*
X184132912Y-77397972D01*
X184159849Y-77478785D01*
X184159849Y-77532659D01*
X184132912Y-77613472D01*
X183917413Y-77828971D01*
X184213724Y-77047786D02*
X184213724Y-76993911D01*
X184240662Y-76913099D01*
X184375349Y-76778412D01*
X184456161Y-76751475D01*
X184510036Y-76751475D01*
X184590848Y-76778412D01*
X184644723Y-76832287D01*
X184698597Y-76940037D01*
X184698597Y-77586534D01*
X185048784Y-77236348D01*
X185048784Y-76589850D02*
X184967971Y-76616788D01*
X184914097Y-76616788D01*
X184833284Y-76589850D01*
X184806347Y-76562913D01*
X184779410Y-76482101D01*
X184779410Y-76428226D01*
X184806347Y-76347414D01*
X184914097Y-76239664D01*
X184994909Y-76212727D01*
X185048784Y-76212727D01*
X185129596Y-76239664D01*
X185156533Y-76266602D01*
X185183471Y-76347414D01*
X185183471Y-76401289D01*
X185156533Y-76482101D01*
X185048784Y-76589850D01*
X185021846Y-76670663D01*
X185021846Y-76724537D01*
X185048784Y-76805350D01*
X185156533Y-76913099D01*
X185237345Y-76940037D01*
X185291220Y-76940037D01*
X185372032Y-76913099D01*
X185479782Y-76805350D01*
X185506719Y-76724537D01*
X185506719Y-76670663D01*
X185479782Y-76589850D01*
X185372032Y-76482101D01*
X185291220Y-76455163D01*
X185237345Y-76455163D01*
X185156533Y-76482101D01*
X157794039Y-90513597D02*
X157713227Y-90540534D01*
X157632414Y-90621346D01*
X157578540Y-90729096D01*
X157578540Y-90836846D01*
X157605477Y-90917658D01*
X157686289Y-91052345D01*
X157767101Y-91133157D01*
X157901788Y-91213969D01*
X157982601Y-91240907D01*
X158090350Y-91240907D01*
X158198100Y-91187032D01*
X158251975Y-91133157D01*
X158305849Y-91025407D01*
X158305849Y-90971533D01*
X158117288Y-90782971D01*
X158009538Y-90890720D01*
X158602161Y-90782971D02*
X158036475Y-90217285D01*
X158251975Y-90001786D01*
X158332787Y-89974849D01*
X158386662Y-89974849D01*
X158467474Y-90001786D01*
X158548286Y-90082598D01*
X158575223Y-90163411D01*
X158575223Y-90217285D01*
X158548286Y-90298098D01*
X158332787Y-90513597D01*
X159194784Y-90190348D02*
X159302533Y-90082598D01*
X159329471Y-90001786D01*
X159329471Y-89947911D01*
X159302533Y-89813224D01*
X159221721Y-89678537D01*
X159006222Y-89463038D01*
X158925410Y-89436101D01*
X158871535Y-89436101D01*
X158790723Y-89463038D01*
X158682973Y-89570788D01*
X158656036Y-89651600D01*
X158656036Y-89705475D01*
X158682973Y-89786287D01*
X158817660Y-89920974D01*
X158898472Y-89947911D01*
X158952347Y-89947911D01*
X159033159Y-89920974D01*
X159140909Y-89813224D01*
X159167846Y-89732412D01*
X159167846Y-89678537D01*
X159140909Y-89597725D01*
X157794039Y-77813597D02*
X157713227Y-77840534D01*
X157632414Y-77921346D01*
X157578540Y-78029096D01*
X157578540Y-78136846D01*
X157605477Y-78217658D01*
X157686289Y-78352345D01*
X157767101Y-78433157D01*
X157901788Y-78513969D01*
X157982601Y-78540907D01*
X158090350Y-78540907D01*
X158198100Y-78487032D01*
X158251975Y-78433157D01*
X158305849Y-78325407D01*
X158305849Y-78271533D01*
X158117288Y-78082971D01*
X158009538Y-78190720D01*
X158602161Y-78082971D02*
X158036475Y-77517285D01*
X158251975Y-77301786D01*
X158332787Y-77274849D01*
X158386662Y-77274849D01*
X158467474Y-77301786D01*
X158548286Y-77382598D01*
X158575223Y-77463411D01*
X158575223Y-77517285D01*
X158548286Y-77598098D01*
X158332787Y-77813597D01*
X158871535Y-76682226D02*
X158602161Y-76951600D01*
X158844597Y-77247911D01*
X158844597Y-77194037D01*
X158871535Y-77113224D01*
X159006222Y-76978537D01*
X159087034Y-76951600D01*
X159140909Y-76951600D01*
X159221721Y-76978537D01*
X159356408Y-77113224D01*
X159383345Y-77194037D01*
X159383345Y-77247911D01*
X159356408Y-77328724D01*
X159221721Y-77463411D01*
X159140909Y-77490348D01*
X159087034Y-77490348D01*
X157794039Y-62573597D02*
X157713227Y-62600534D01*
X157632414Y-62681346D01*
X157578540Y-62789096D01*
X157578540Y-62896846D01*
X157605477Y-62977658D01*
X157686289Y-63112345D01*
X157767101Y-63193157D01*
X157901788Y-63273969D01*
X157982601Y-63300907D01*
X158090350Y-63300907D01*
X158198100Y-63247032D01*
X158251975Y-63193157D01*
X158305849Y-63085407D01*
X158305849Y-63031533D01*
X158117288Y-62842971D01*
X158009538Y-62950720D01*
X158602161Y-62842971D02*
X158036475Y-62277285D01*
X158251975Y-62061786D01*
X158332787Y-62034849D01*
X158386662Y-62034849D01*
X158467474Y-62061786D01*
X158548286Y-62142598D01*
X158575223Y-62223411D01*
X158575223Y-62277285D01*
X158548286Y-62358098D01*
X158332787Y-62573597D01*
X158709910Y-61603850D02*
X158763785Y-61549976D01*
X158844597Y-61523038D01*
X158898472Y-61523038D01*
X158979284Y-61549976D01*
X159113971Y-61630788D01*
X159248658Y-61765475D01*
X159329471Y-61900162D01*
X159356408Y-61980974D01*
X159356408Y-62034849D01*
X159329471Y-62115661D01*
X159275596Y-62169536D01*
X159194784Y-62196473D01*
X159140909Y-62196473D01*
X159060097Y-62169536D01*
X158925410Y-62088724D01*
X158790723Y-61954037D01*
X158709910Y-61819350D01*
X158682973Y-61738537D01*
X158682973Y-61684663D01*
X158709910Y-61603850D01*
X157794039Y-72733597D02*
X157713227Y-72760534D01*
X157632414Y-72841346D01*
X157578540Y-72949096D01*
X157578540Y-73056846D01*
X157605477Y-73137658D01*
X157686289Y-73272345D01*
X157767101Y-73353157D01*
X157901788Y-73433969D01*
X157982601Y-73460907D01*
X158090350Y-73460907D01*
X158198100Y-73407032D01*
X158251975Y-73353157D01*
X158305849Y-73245407D01*
X158305849Y-73191533D01*
X158117288Y-73002971D01*
X158009538Y-73110720D01*
X158602161Y-73002971D02*
X158036475Y-72437285D01*
X158251975Y-72221786D01*
X158332787Y-72194849D01*
X158386662Y-72194849D01*
X158467474Y-72221786D01*
X158548286Y-72302598D01*
X158575223Y-72383411D01*
X158575223Y-72437285D01*
X158548286Y-72518098D01*
X158332787Y-72733597D01*
X158548286Y-71925475D02*
X158898472Y-71575289D01*
X158925410Y-71979350D01*
X159006222Y-71898537D01*
X159087034Y-71871600D01*
X159140909Y-71871600D01*
X159221721Y-71898537D01*
X159356408Y-72033224D01*
X159383345Y-72114037D01*
X159383345Y-72167911D01*
X159356408Y-72248724D01*
X159194784Y-72410348D01*
X159113971Y-72437285D01*
X159060097Y-72437285D01*
X157767101Y-105780534D02*
X157686289Y-105807472D01*
X157605477Y-105888284D01*
X157551602Y-105996033D01*
X157551602Y-106103783D01*
X157578540Y-106184595D01*
X157659352Y-106319282D01*
X157740164Y-106400094D01*
X157874851Y-106480907D01*
X157955663Y-106507844D01*
X158063413Y-106507844D01*
X158171162Y-106453969D01*
X158225037Y-106400094D01*
X158278912Y-106292345D01*
X158278912Y-106238470D01*
X158090350Y-106049908D01*
X157982601Y-106157658D01*
X158575223Y-106049908D02*
X158009538Y-105484223D01*
X158898472Y-105726659D01*
X158332787Y-105160974D01*
X159167846Y-105457285D02*
X158602161Y-104891600D01*
X158736848Y-104756913D01*
X158844597Y-104703038D01*
X158952347Y-104703038D01*
X159033159Y-104729976D01*
X159167846Y-104810788D01*
X159248658Y-104891600D01*
X159329471Y-105026287D01*
X159356408Y-105107099D01*
X159356408Y-105214849D01*
X159302533Y-105322598D01*
X159167846Y-105457285D01*
X157767101Y-67680534D02*
X157686289Y-67707472D01*
X157605477Y-67788284D01*
X157551602Y-67896033D01*
X157551602Y-68003783D01*
X157578540Y-68084595D01*
X157659352Y-68219282D01*
X157740164Y-68300094D01*
X157874851Y-68380907D01*
X157955663Y-68407844D01*
X158063413Y-68407844D01*
X158171162Y-68353969D01*
X158225037Y-68300094D01*
X158278912Y-68192345D01*
X158278912Y-68138470D01*
X158090350Y-67949908D01*
X157982601Y-68057658D01*
X158575223Y-67949908D02*
X158009538Y-67384223D01*
X158898472Y-67626659D01*
X158332787Y-67060974D01*
X159167846Y-67357285D02*
X158602161Y-66791600D01*
X158736848Y-66656913D01*
X158844597Y-66603038D01*
X158952347Y-66603038D01*
X159033159Y-66629976D01*
X159167846Y-66710788D01*
X159248658Y-66791600D01*
X159329471Y-66926287D01*
X159356408Y-67007099D01*
X159356408Y-67114849D01*
X159302533Y-67222598D01*
X159167846Y-67357285D01*
X183378665Y-98402971D02*
X183297853Y-98429908D01*
X183217040Y-98510720D01*
X183163166Y-98618470D01*
X183163166Y-98726220D01*
X183190103Y-98807032D01*
X183270915Y-98941719D01*
X183351727Y-99022531D01*
X183486414Y-99103343D01*
X183567227Y-99130281D01*
X183674976Y-99130281D01*
X183782726Y-99076406D01*
X183836601Y-99022531D01*
X183890475Y-98914781D01*
X183890475Y-98860907D01*
X183701914Y-98672345D01*
X183594164Y-98780094D01*
X184186787Y-98672345D02*
X183621101Y-98106659D01*
X183836601Y-97891160D01*
X183917413Y-97864223D01*
X183971288Y-97864223D01*
X184052100Y-97891160D01*
X184132912Y-97971972D01*
X184159849Y-98052785D01*
X184159849Y-98106659D01*
X184132912Y-98187472D01*
X183917413Y-98402971D01*
X184213724Y-97621786D02*
X184213724Y-97567911D01*
X184240662Y-97487099D01*
X184375349Y-97352412D01*
X184456161Y-97325475D01*
X184510036Y-97325475D01*
X184590848Y-97352412D01*
X184644723Y-97406287D01*
X184698597Y-97514037D01*
X184698597Y-98160534D01*
X185048784Y-97810348D01*
X184833284Y-96894476D02*
X184887159Y-96840602D01*
X184967971Y-96813664D01*
X185021846Y-96813664D01*
X185102658Y-96840602D01*
X185237345Y-96921414D01*
X185372032Y-97056101D01*
X185452845Y-97190788D01*
X185479782Y-97271600D01*
X185479782Y-97325475D01*
X185452845Y-97406287D01*
X185398970Y-97460162D01*
X185318158Y-97487099D01*
X185264283Y-97487099D01*
X185183471Y-97460162D01*
X185048784Y-97379350D01*
X184914097Y-97244663D01*
X184833284Y-97109976D01*
X184806347Y-97029163D01*
X184806347Y-96975289D01*
X184833284Y-96894476D01*
X183378665Y-100942971D02*
X183297853Y-100969908D01*
X183217040Y-101050720D01*
X183163166Y-101158470D01*
X183163166Y-101266220D01*
X183190103Y-101347032D01*
X183270915Y-101481719D01*
X183351727Y-101562531D01*
X183486414Y-101643343D01*
X183567227Y-101670281D01*
X183674976Y-101670281D01*
X183782726Y-101616406D01*
X183836601Y-101562531D01*
X183890475Y-101454781D01*
X183890475Y-101400907D01*
X183701914Y-101212345D01*
X183594164Y-101320094D01*
X184186787Y-101212345D02*
X183621101Y-100646659D01*
X183836601Y-100431160D01*
X183917413Y-100404223D01*
X183971288Y-100404223D01*
X184052100Y-100431160D01*
X184132912Y-100511972D01*
X184159849Y-100592785D01*
X184159849Y-100646659D01*
X184132912Y-100727472D01*
X183917413Y-100942971D01*
X185048784Y-100350348D02*
X184725535Y-100673597D01*
X184887159Y-100511972D02*
X184321474Y-99946287D01*
X184348411Y-100080974D01*
X184348411Y-100188724D01*
X184321474Y-100269536D01*
X185318158Y-100080974D02*
X185425907Y-99973224D01*
X185452845Y-99892412D01*
X185452845Y-99838537D01*
X185425907Y-99703850D01*
X185345095Y-99569163D01*
X185129596Y-99353664D01*
X185048784Y-99326727D01*
X184994909Y-99326727D01*
X184914097Y-99353664D01*
X184806347Y-99461414D01*
X184779410Y-99542226D01*
X184779410Y-99596101D01*
X184806347Y-99676913D01*
X184941034Y-99811600D01*
X185021846Y-99838537D01*
X185075721Y-99838537D01*
X185156533Y-99811600D01*
X185264283Y-99703850D01*
X185291220Y-99623038D01*
X185291220Y-99569163D01*
X185264283Y-99488351D01*
X157694039Y-70193597D02*
X157613227Y-70220534D01*
X157532414Y-70301346D01*
X157478540Y-70409096D01*
X157478540Y-70516846D01*
X157505477Y-70597658D01*
X157586289Y-70732345D01*
X157667101Y-70813157D01*
X157801788Y-70893969D01*
X157882601Y-70920907D01*
X157990350Y-70920907D01*
X158098100Y-70867032D01*
X158151975Y-70813157D01*
X158205849Y-70705407D01*
X158205849Y-70651533D01*
X158017288Y-70462971D01*
X157909538Y-70570720D01*
X158502161Y-70462971D02*
X157936475Y-69897285D01*
X158151975Y-69681786D01*
X158232787Y-69654849D01*
X158286662Y-69654849D01*
X158367474Y-69681786D01*
X158448286Y-69762598D01*
X158475223Y-69843411D01*
X158475223Y-69897285D01*
X158448286Y-69978098D01*
X158232787Y-70193597D01*
X158529098Y-69412412D02*
X158529098Y-69358537D01*
X158556036Y-69277725D01*
X158690723Y-69143038D01*
X158771535Y-69116101D01*
X158825410Y-69116101D01*
X158906222Y-69143038D01*
X158960097Y-69196913D01*
X159013971Y-69304663D01*
X159013971Y-69951160D01*
X159364158Y-69600974D01*
X183378665Y-103482971D02*
X183297853Y-103509908D01*
X183217040Y-103590720D01*
X183163166Y-103698470D01*
X183163166Y-103806220D01*
X183190103Y-103887032D01*
X183270915Y-104021719D01*
X183351727Y-104102531D01*
X183486414Y-104183343D01*
X183567227Y-104210281D01*
X183674976Y-104210281D01*
X183782726Y-104156406D01*
X183836601Y-104102531D01*
X183890475Y-103994781D01*
X183890475Y-103940907D01*
X183701914Y-103752345D01*
X183594164Y-103860094D01*
X184186787Y-103752345D02*
X183621101Y-103186659D01*
X183836601Y-102971160D01*
X183917413Y-102944223D01*
X183971288Y-102944223D01*
X184052100Y-102971160D01*
X184132912Y-103051972D01*
X184159849Y-103132785D01*
X184159849Y-103186659D01*
X184132912Y-103267472D01*
X183917413Y-103482971D01*
X185048784Y-102890348D02*
X184725535Y-103213597D01*
X184887159Y-103051972D02*
X184321474Y-102486287D01*
X184348411Y-102620974D01*
X184348411Y-102728724D01*
X184321474Y-102809536D01*
X185048784Y-102243850D02*
X184967971Y-102270788D01*
X184914097Y-102270788D01*
X184833284Y-102243850D01*
X184806347Y-102216913D01*
X184779410Y-102136101D01*
X184779410Y-102082226D01*
X184806347Y-102001414D01*
X184914097Y-101893664D01*
X184994909Y-101866727D01*
X185048784Y-101866727D01*
X185129596Y-101893664D01*
X185156533Y-101920602D01*
X185183471Y-102001414D01*
X185183471Y-102055289D01*
X185156533Y-102136101D01*
X185048784Y-102243850D01*
X185021846Y-102324663D01*
X185021846Y-102378537D01*
X185048784Y-102459350D01*
X185156533Y-102567099D01*
X185237345Y-102594037D01*
X185291220Y-102594037D01*
X185372032Y-102567099D01*
X185479782Y-102459350D01*
X185506719Y-102378537D01*
X185506719Y-102324663D01*
X185479782Y-102243850D01*
X185372032Y-102136101D01*
X185291220Y-102109163D01*
X185237345Y-102109163D01*
X185156533Y-102136101D01*
X157794039Y-82893597D02*
X157713227Y-82920534D01*
X157632414Y-83001346D01*
X157578540Y-83109096D01*
X157578540Y-83216846D01*
X157605477Y-83297658D01*
X157686289Y-83432345D01*
X157767101Y-83513157D01*
X157901788Y-83593969D01*
X157982601Y-83620907D01*
X158090350Y-83620907D01*
X158198100Y-83567032D01*
X158251975Y-83513157D01*
X158305849Y-83405407D01*
X158305849Y-83351533D01*
X158117288Y-83162971D01*
X158009538Y-83270720D01*
X158602161Y-83162971D02*
X158036475Y-82597285D01*
X158251975Y-82381786D01*
X158332787Y-82354849D01*
X158386662Y-82354849D01*
X158467474Y-82381786D01*
X158548286Y-82462598D01*
X158575223Y-82543411D01*
X158575223Y-82597285D01*
X158548286Y-82678098D01*
X158332787Y-82893597D01*
X158844597Y-81789163D02*
X158736848Y-81896913D01*
X158709910Y-81977725D01*
X158709910Y-82031600D01*
X158736848Y-82166287D01*
X158817660Y-82300974D01*
X159033159Y-82516473D01*
X159113971Y-82543411D01*
X159167846Y-82543411D01*
X159248658Y-82516473D01*
X159356408Y-82408724D01*
X159383345Y-82327911D01*
X159383345Y-82274037D01*
X159356408Y-82193224D01*
X159221721Y-82058537D01*
X159140909Y-82031600D01*
X159087034Y-82031600D01*
X159006222Y-82058537D01*
X158898472Y-82166287D01*
X158871535Y-82247099D01*
X158871535Y-82300974D01*
X158898472Y-82381786D01*
X183378665Y-95872971D02*
X183297853Y-95899908D01*
X183217040Y-95980720D01*
X183163166Y-96088470D01*
X183163166Y-96196220D01*
X183190103Y-96277032D01*
X183270915Y-96411719D01*
X183351727Y-96492531D01*
X183486414Y-96573343D01*
X183567227Y-96600281D01*
X183674976Y-96600281D01*
X183782726Y-96546406D01*
X183836601Y-96492531D01*
X183890475Y-96384781D01*
X183890475Y-96330907D01*
X183701914Y-96142345D01*
X183594164Y-96250094D01*
X184186787Y-96142345D02*
X183621101Y-95576659D01*
X183836601Y-95361160D01*
X183917413Y-95334223D01*
X183971288Y-95334223D01*
X184052100Y-95361160D01*
X184132912Y-95441972D01*
X184159849Y-95522785D01*
X184159849Y-95576659D01*
X184132912Y-95657472D01*
X183917413Y-95872971D01*
X184213724Y-95091786D02*
X184213724Y-95037911D01*
X184240662Y-94957099D01*
X184375349Y-94822412D01*
X184456161Y-94795475D01*
X184510036Y-94795475D01*
X184590848Y-94822412D01*
X184644723Y-94876287D01*
X184698597Y-94984037D01*
X184698597Y-95630534D01*
X185048784Y-95280348D01*
X185587532Y-94741600D02*
X185264283Y-95064849D01*
X185425907Y-94903224D02*
X184860222Y-94337539D01*
X184887159Y-94472226D01*
X184887159Y-94579976D01*
X184860222Y-94660788D01*
X183378665Y-90782971D02*
X183297853Y-90809908D01*
X183217040Y-90890720D01*
X183163166Y-90998470D01*
X183163166Y-91106220D01*
X183190103Y-91187032D01*
X183270915Y-91321719D01*
X183351727Y-91402531D01*
X183486414Y-91483343D01*
X183567227Y-91510281D01*
X183674976Y-91510281D01*
X183782726Y-91456406D01*
X183836601Y-91402531D01*
X183890475Y-91294781D01*
X183890475Y-91240907D01*
X183701914Y-91052345D01*
X183594164Y-91160094D01*
X184186787Y-91052345D02*
X183621101Y-90486659D01*
X183836601Y-90271160D01*
X183917413Y-90244223D01*
X183971288Y-90244223D01*
X184052100Y-90271160D01*
X184132912Y-90351972D01*
X184159849Y-90432785D01*
X184159849Y-90486659D01*
X184132912Y-90567472D01*
X183917413Y-90782971D01*
X184213724Y-90001786D02*
X184213724Y-89947911D01*
X184240662Y-89867099D01*
X184375349Y-89732412D01*
X184456161Y-89705475D01*
X184510036Y-89705475D01*
X184590848Y-89732412D01*
X184644723Y-89786287D01*
X184698597Y-89894037D01*
X184698597Y-90540534D01*
X185048784Y-90190348D01*
X184752472Y-89463038D02*
X184752472Y-89409163D01*
X184779410Y-89328351D01*
X184914097Y-89193664D01*
X184994909Y-89166727D01*
X185048784Y-89166727D01*
X185129596Y-89193664D01*
X185183471Y-89247539D01*
X185237345Y-89355289D01*
X185237345Y-90001786D01*
X185587532Y-89651600D01*
X157767101Y-93080534D02*
X157686289Y-93107472D01*
X157605477Y-93188284D01*
X157551602Y-93296033D01*
X157551602Y-93403783D01*
X157578540Y-93484595D01*
X157659352Y-93619282D01*
X157740164Y-93700094D01*
X157874851Y-93780907D01*
X157955663Y-93807844D01*
X158063413Y-93807844D01*
X158171162Y-93753969D01*
X158225037Y-93700094D01*
X158278912Y-93592345D01*
X158278912Y-93538470D01*
X158090350Y-93349908D01*
X157982601Y-93457658D01*
X158575223Y-93349908D02*
X158009538Y-92784223D01*
X158898472Y-93026659D01*
X158332787Y-92460974D01*
X159167846Y-92757285D02*
X158602161Y-92191600D01*
X158736848Y-92056913D01*
X158844597Y-92003038D01*
X158952347Y-92003038D01*
X159033159Y-92029976D01*
X159167846Y-92110788D01*
X159248658Y-92191600D01*
X159329471Y-92326287D01*
X159356408Y-92407099D01*
X159356408Y-92514849D01*
X159302533Y-92622598D01*
X159167846Y-92757285D01*
X157224665Y-108562971D02*
X157143853Y-108589908D01*
X157063040Y-108670720D01*
X157009166Y-108778470D01*
X157009166Y-108886220D01*
X157036103Y-108967032D01*
X157116915Y-109101719D01*
X157197727Y-109182531D01*
X157332414Y-109263343D01*
X157413227Y-109290281D01*
X157520976Y-109290281D01*
X157628726Y-109236406D01*
X157682601Y-109182531D01*
X157736475Y-109074781D01*
X157736475Y-109020907D01*
X157547914Y-108832345D01*
X157440164Y-108940094D01*
X158032787Y-108832345D02*
X157467101Y-108266659D01*
X157682601Y-108051160D01*
X157763413Y-108024223D01*
X157817288Y-108024223D01*
X157898100Y-108051160D01*
X157978912Y-108131972D01*
X158005849Y-108212785D01*
X158005849Y-108266659D01*
X157978912Y-108347472D01*
X157763413Y-108562971D01*
X158894784Y-107970348D02*
X158571535Y-108293597D01*
X158733159Y-108131972D02*
X158167474Y-107566287D01*
X158194411Y-107700974D01*
X158194411Y-107808724D01*
X158167474Y-107889536D01*
X159002533Y-107108351D02*
X159379657Y-107485475D01*
X158652347Y-107027539D02*
X158921721Y-107566287D01*
X159271907Y-107216101D01*
X183201416Y-65652345D02*
X183955663Y-66029468D01*
X183578540Y-65275221D01*
X184278912Y-65652345D02*
X184386662Y-65598470D01*
X184521349Y-65463783D01*
X184548286Y-65382971D01*
X184548286Y-65329096D01*
X184521349Y-65248284D01*
X184467474Y-65194409D01*
X184386662Y-65167472D01*
X184332787Y-65167472D01*
X184251975Y-65194409D01*
X184117288Y-65275221D01*
X184036475Y-65302159D01*
X183982601Y-65302159D01*
X183901788Y-65275221D01*
X183847914Y-65221346D01*
X183820976Y-65140534D01*
X183820976Y-65086659D01*
X183847914Y-65005847D01*
X183982601Y-64871160D01*
X184090350Y-64817285D01*
X184709910Y-64736473D02*
X184979284Y-65005847D01*
X184225037Y-64628724D02*
X184709910Y-64736473D01*
X184602161Y-64251600D01*
X185302533Y-64628724D02*
X185410283Y-64574849D01*
X185544970Y-64440162D01*
X185571907Y-64359350D01*
X185571907Y-64305475D01*
X185544970Y-64224663D01*
X185491095Y-64170788D01*
X185410283Y-64143850D01*
X185356408Y-64143850D01*
X185275596Y-64170788D01*
X185140909Y-64251600D01*
X185060097Y-64278537D01*
X185006222Y-64278537D01*
X184925410Y-64251600D01*
X184871535Y-64197725D01*
X184844597Y-64116913D01*
X184844597Y-64063038D01*
X184871535Y-63982226D01*
X185006222Y-63847539D01*
X185113971Y-63793664D01*
X157124665Y-100942971D02*
X157043853Y-100969908D01*
X156963040Y-101050720D01*
X156909166Y-101158470D01*
X156909166Y-101266220D01*
X156936103Y-101347032D01*
X157016915Y-101481719D01*
X157097727Y-101562531D01*
X157232414Y-101643343D01*
X157313227Y-101670281D01*
X157420976Y-101670281D01*
X157528726Y-101616406D01*
X157582601Y-101562531D01*
X157636475Y-101454781D01*
X157636475Y-101400907D01*
X157447914Y-101212345D01*
X157340164Y-101320094D01*
X157932787Y-101212345D02*
X157367101Y-100646659D01*
X157582601Y-100431160D01*
X157663413Y-100404223D01*
X157717288Y-100404223D01*
X157798100Y-100431160D01*
X157878912Y-100511972D01*
X157905849Y-100592785D01*
X157905849Y-100646659D01*
X157878912Y-100727472D01*
X157663413Y-100942971D01*
X158794784Y-100350348D02*
X158471535Y-100673597D01*
X158633159Y-100511972D02*
X158067474Y-99946287D01*
X158094411Y-100080974D01*
X158094411Y-100188724D01*
X158067474Y-100269536D01*
X158498472Y-99623038D02*
X158498472Y-99569163D01*
X158525410Y-99488351D01*
X158660097Y-99353664D01*
X158740909Y-99326727D01*
X158794784Y-99326727D01*
X158875596Y-99353664D01*
X158929471Y-99407539D01*
X158983345Y-99515289D01*
X158983345Y-100161786D01*
X159333532Y-99811600D01*
X157694039Y-65103597D02*
X157613227Y-65130534D01*
X157532414Y-65211346D01*
X157478540Y-65319096D01*
X157478540Y-65426846D01*
X157505477Y-65507658D01*
X157586289Y-65642345D01*
X157667101Y-65723157D01*
X157801788Y-65803969D01*
X157882601Y-65830907D01*
X157990350Y-65830907D01*
X158098100Y-65777032D01*
X158151975Y-65723157D01*
X158205849Y-65615407D01*
X158205849Y-65561533D01*
X158017288Y-65372971D01*
X157909538Y-65480720D01*
X158502161Y-65372971D02*
X157936475Y-64807285D01*
X158151975Y-64591786D01*
X158232787Y-64564849D01*
X158286662Y-64564849D01*
X158367474Y-64591786D01*
X158448286Y-64672598D01*
X158475223Y-64753411D01*
X158475223Y-64807285D01*
X158448286Y-64888098D01*
X158232787Y-65103597D01*
X159364158Y-64510974D02*
X159040909Y-64834223D01*
X159202533Y-64672598D02*
X158636848Y-64106913D01*
X158663785Y-64241600D01*
X158663785Y-64349350D01*
X158636848Y-64430162D01*
X157270665Y-95862971D02*
X157189853Y-95889908D01*
X157109040Y-95970720D01*
X157055166Y-96078470D01*
X157055166Y-96186220D01*
X157082103Y-96267032D01*
X157162915Y-96401719D01*
X157243727Y-96482531D01*
X157378414Y-96563343D01*
X157459227Y-96590281D01*
X157566976Y-96590281D01*
X157674726Y-96536406D01*
X157728601Y-96482531D01*
X157782475Y-96374781D01*
X157782475Y-96320907D01*
X157593914Y-96132345D01*
X157486164Y-96240094D01*
X158078787Y-96132345D02*
X157513101Y-95566659D01*
X157728601Y-95351160D01*
X157809413Y-95324223D01*
X157863288Y-95324223D01*
X157944100Y-95351160D01*
X158024912Y-95431972D01*
X158051849Y-95512785D01*
X158051849Y-95566659D01*
X158024912Y-95647472D01*
X157809413Y-95862971D01*
X158940784Y-95270348D02*
X158617535Y-95593597D01*
X158779159Y-95431972D02*
X158213474Y-94866287D01*
X158240411Y-95000974D01*
X158240411Y-95108724D01*
X158213474Y-95189536D01*
X158725284Y-94354476D02*
X158779159Y-94300602D01*
X158859971Y-94273664D01*
X158913846Y-94273664D01*
X158994658Y-94300602D01*
X159129345Y-94381414D01*
X159264032Y-94516101D01*
X159344845Y-94650788D01*
X159371782Y-94731600D01*
X159371782Y-94785475D01*
X159344845Y-94866287D01*
X159290970Y-94920162D01*
X159210158Y-94947099D01*
X159156283Y-94947099D01*
X159075471Y-94920162D01*
X158940784Y-94839350D01*
X158806097Y-94704663D01*
X158725284Y-94569976D01*
X158698347Y-94489163D01*
X158698347Y-94435289D01*
X158725284Y-94354476D01*
X184119318Y-88525814D02*
X183661382Y-88445001D01*
X183796069Y-88849062D02*
X183230384Y-88283377D01*
X183445883Y-88067878D01*
X183526695Y-88040940D01*
X183580570Y-88040940D01*
X183661382Y-88067878D01*
X183742194Y-88148690D01*
X183769132Y-88229502D01*
X183769132Y-88283377D01*
X183742194Y-88364189D01*
X183526695Y-88579688D01*
X183796069Y-87717691D02*
X184254005Y-88175627D01*
X184334817Y-88202565D01*
X184388692Y-88202565D01*
X184469504Y-88175627D01*
X184577254Y-88067878D01*
X184604191Y-87987066D01*
X184604191Y-87933191D01*
X184577254Y-87852378D01*
X184119318Y-87394443D01*
X184954378Y-87690754D02*
X184388692Y-87125069D01*
X185277626Y-87367505D01*
X184711941Y-86801820D01*
X183378665Y-83172971D02*
X183297853Y-83199908D01*
X183217040Y-83280720D01*
X183163166Y-83388470D01*
X183163166Y-83496220D01*
X183190103Y-83577032D01*
X183270915Y-83711719D01*
X183351727Y-83792531D01*
X183486414Y-83873343D01*
X183567227Y-83900281D01*
X183674976Y-83900281D01*
X183782726Y-83846406D01*
X183836601Y-83792531D01*
X183890475Y-83684781D01*
X183890475Y-83630907D01*
X183701914Y-83442345D01*
X183594164Y-83550094D01*
X184186787Y-83442345D02*
X183621101Y-82876659D01*
X183836601Y-82661160D01*
X183917413Y-82634223D01*
X183971288Y-82634223D01*
X184052100Y-82661160D01*
X184132912Y-82741972D01*
X184159849Y-82822785D01*
X184159849Y-82876659D01*
X184132912Y-82957472D01*
X183917413Y-83172971D01*
X184213724Y-82391786D02*
X184213724Y-82337911D01*
X184240662Y-82257099D01*
X184375349Y-82122412D01*
X184456161Y-82095475D01*
X184510036Y-82095475D01*
X184590848Y-82122412D01*
X184644723Y-82176287D01*
X184698597Y-82284037D01*
X184698597Y-82930534D01*
X185048784Y-82580348D01*
X184671660Y-81826101D02*
X185048784Y-81448977D01*
X185372032Y-82257099D01*
%TO.C,K17*%
X156347116Y-128919897D02*
X157253424Y-129342515D01*
X151336768Y-142030824D02*
X150430461Y-141608206D01*
X163541388Y-146618554D02*
X163118770Y-147524861D01*
X163118770Y-147524861D02*
X162212462Y-147102243D01*
X168129118Y-134413934D02*
X169035425Y-134836552D01*
X169035425Y-134836552D02*
X168612807Y-135742860D01*
X150430461Y-141608206D02*
X150853079Y-140701898D01*
X155924498Y-129826204D02*
X156347116Y-128919897D01*
%TO.C,K16*%
X133394666Y-121273864D02*
X134345723Y-121582881D01*
X130019485Y-134897673D02*
X129068428Y-134588656D01*
X142692237Y-137963837D02*
X142383220Y-138914894D01*
X142383220Y-138914894D02*
X141432163Y-138605877D01*
X145758401Y-125291085D02*
X146709458Y-125600102D01*
X146709458Y-125600102D02*
X146400441Y-126551159D01*
X129068428Y-134588656D02*
X129377445Y-133637599D01*
X133085649Y-122224921D02*
X133394666Y-121273864D01*
%TO.C,K15*%
X137746943Y-99472379D02*
X138746943Y-99472379D01*
X138746943Y-113472379D02*
X137746943Y-113472379D01*
X151746943Y-112472379D02*
X151746943Y-113472379D01*
X151746943Y-113472379D02*
X150746943Y-113472379D01*
X150746943Y-99472379D02*
X151746943Y-99472379D01*
X151746943Y-99472379D02*
X151746943Y-100472379D01*
X137746943Y-113472379D02*
X137746943Y-112472379D01*
X137746943Y-100472379D02*
X137746943Y-99472379D01*
%TO.C,K14*%
X118696943Y-96424379D02*
X119696943Y-96424379D01*
X119696943Y-110424379D02*
X118696943Y-110424379D01*
X132696943Y-109424379D02*
X132696943Y-110424379D01*
X132696943Y-110424379D02*
X131696943Y-110424379D01*
X131696943Y-96424379D02*
X132696943Y-96424379D01*
X132696943Y-96424379D02*
X132696943Y-97424379D01*
X118696943Y-110424379D02*
X118696943Y-109424379D01*
X118696943Y-97424379D02*
X118696943Y-96424379D01*
%TO.C,K13*%
X99646943Y-92106379D02*
X100646943Y-92106379D01*
X100646943Y-106106379D02*
X99646943Y-106106379D01*
X113646943Y-105106379D02*
X113646943Y-106106379D01*
X113646943Y-106106379D02*
X112646943Y-106106379D01*
X112646943Y-92106379D02*
X113646943Y-92106379D01*
X113646943Y-92106379D02*
X113646943Y-93106379D01*
X99646943Y-106106379D02*
X99646943Y-105106379D01*
X99646943Y-93106379D02*
X99646943Y-92106379D01*
%TO.C,K12*%
X80596943Y-95916379D02*
X81596943Y-95916379D01*
X81596943Y-109916379D02*
X80596943Y-109916379D01*
X94596943Y-108916379D02*
X94596943Y-109916379D01*
X94596943Y-109916379D02*
X93596943Y-109916379D01*
X93596943Y-95916379D02*
X94596943Y-95916379D01*
X94596943Y-95916379D02*
X94596943Y-96916379D01*
X80596943Y-109916379D02*
X80596943Y-108916379D01*
X80596943Y-96916379D02*
X80596943Y-95916379D01*
%TO.C,K11*%
X61546943Y-102774379D02*
X62546943Y-102774379D01*
X62546943Y-116774379D02*
X61546943Y-116774379D01*
X75546943Y-115774379D02*
X75546943Y-116774379D01*
X75546943Y-116774379D02*
X74546943Y-116774379D01*
X74546943Y-102774379D02*
X75546943Y-102774379D01*
X75546943Y-102774379D02*
X75546943Y-103774379D01*
X61546943Y-116774379D02*
X61546943Y-115774379D01*
X61546943Y-103774379D02*
X61546943Y-102774379D01*
%TO.C,K10*%
X137746943Y-80422379D02*
X138746943Y-80422379D01*
X138746943Y-94422379D02*
X137746943Y-94422379D01*
X151746943Y-93422379D02*
X151746943Y-94422379D01*
X151746943Y-94422379D02*
X150746943Y-94422379D01*
X150746943Y-80422379D02*
X151746943Y-80422379D01*
X151746943Y-80422379D02*
X151746943Y-81422379D01*
X137746943Y-94422379D02*
X137746943Y-93422379D01*
X137746943Y-81422379D02*
X137746943Y-80422379D01*
%TO.C,K9*%
X118696943Y-77374379D02*
X119696943Y-77374379D01*
X119696943Y-91374379D02*
X118696943Y-91374379D01*
X132696943Y-90374379D02*
X132696943Y-91374379D01*
X132696943Y-91374379D02*
X131696943Y-91374379D01*
X131696943Y-77374379D02*
X132696943Y-77374379D01*
X132696943Y-77374379D02*
X132696943Y-78374379D01*
X118696943Y-91374379D02*
X118696943Y-90374379D01*
X118696943Y-78374379D02*
X118696943Y-77374379D01*
%TO.C,K8*%
X99646943Y-73056379D02*
X100646943Y-73056379D01*
X100646943Y-87056379D02*
X99646943Y-87056379D01*
X113646943Y-86056379D02*
X113646943Y-87056379D01*
X113646943Y-87056379D02*
X112646943Y-87056379D01*
X112646943Y-73056379D02*
X113646943Y-73056379D01*
X113646943Y-73056379D02*
X113646943Y-74056379D01*
X99646943Y-87056379D02*
X99646943Y-86056379D01*
X99646943Y-74056379D02*
X99646943Y-73056379D01*
%TO.C,K7*%
X80596943Y-76866379D02*
X81596943Y-76866379D01*
X81596943Y-90866379D02*
X80596943Y-90866379D01*
X94596943Y-89866379D02*
X94596943Y-90866379D01*
X94596943Y-90866379D02*
X93596943Y-90866379D01*
X93596943Y-76866379D02*
X94596943Y-76866379D01*
X94596943Y-76866379D02*
X94596943Y-77866379D01*
X80596943Y-90866379D02*
X80596943Y-89866379D01*
X80596943Y-77866379D02*
X80596943Y-76866379D01*
%TO.C,K6*%
X61546943Y-83724379D02*
X62546943Y-83724379D01*
X62546943Y-97724379D02*
X61546943Y-97724379D01*
X75546943Y-96724379D02*
X75546943Y-97724379D01*
X75546943Y-97724379D02*
X74546943Y-97724379D01*
X74546943Y-83724379D02*
X75546943Y-83724379D01*
X75546943Y-83724379D02*
X75546943Y-84724379D01*
X61546943Y-97724379D02*
X61546943Y-96724379D01*
X61546943Y-84724379D02*
X61546943Y-83724379D01*
%TO.C,K5*%
X137746943Y-61372379D02*
X138746943Y-61372379D01*
X138746943Y-75372379D02*
X137746943Y-75372379D01*
X151746943Y-74372379D02*
X151746943Y-75372379D01*
X151746943Y-75372379D02*
X150746943Y-75372379D01*
X150746943Y-61372379D02*
X151746943Y-61372379D01*
X151746943Y-61372379D02*
X151746943Y-62372379D01*
X137746943Y-75372379D02*
X137746943Y-74372379D01*
X137746943Y-62372379D02*
X137746943Y-61372379D01*
%TO.C,K4*%
X118696943Y-58324379D02*
X119696943Y-58324379D01*
X119696943Y-72324379D02*
X118696943Y-72324379D01*
X132696943Y-71324379D02*
X132696943Y-72324379D01*
X132696943Y-72324379D02*
X131696943Y-72324379D01*
X131696943Y-58324379D02*
X132696943Y-58324379D01*
X132696943Y-58324379D02*
X132696943Y-59324379D01*
X118696943Y-72324379D02*
X118696943Y-71324379D01*
X118696943Y-59324379D02*
X118696943Y-58324379D01*
%TO.C,K3*%
X99646943Y-54006379D02*
X100646943Y-54006379D01*
X100646943Y-68006379D02*
X99646943Y-68006379D01*
X113646943Y-67006379D02*
X113646943Y-68006379D01*
X113646943Y-68006379D02*
X112646943Y-68006379D01*
X112646943Y-54006379D02*
X113646943Y-54006379D01*
X113646943Y-54006379D02*
X113646943Y-55006379D01*
X99646943Y-68006379D02*
X99646943Y-67006379D01*
X99646943Y-55006379D02*
X99646943Y-54006379D01*
%TO.C,K2*%
X80596943Y-57816379D02*
X81596943Y-57816379D01*
X81596943Y-71816379D02*
X80596943Y-71816379D01*
X94596943Y-70816379D02*
X94596943Y-71816379D01*
X94596943Y-71816379D02*
X93596943Y-71816379D01*
X93596943Y-57816379D02*
X94596943Y-57816379D01*
X94596943Y-57816379D02*
X94596943Y-58816379D01*
X80596943Y-71816379D02*
X80596943Y-70816379D01*
X80596943Y-58816379D02*
X80596943Y-57816379D01*
%TO.C,K1*%
X61546943Y-64674379D02*
X62546943Y-64674379D01*
X62546943Y-78674379D02*
X61546943Y-78674379D01*
X75546943Y-77674379D02*
X75546943Y-78674379D01*
X75546943Y-78674379D02*
X74546943Y-78674379D01*
X74546943Y-64674379D02*
X75546943Y-64674379D01*
X75546943Y-64674379D02*
X75546943Y-65674379D01*
X61546943Y-78674379D02*
X61546943Y-77674379D01*
X61546943Y-65674379D02*
X61546943Y-64674379D01*
D11*
%TO.C,U1*%
X181780943Y-91482379D02*
X181780943Y-91882379D01*
X160780943Y-63482379D02*
X160780943Y-63882379D01*
X160780943Y-66082379D02*
X160780943Y-66482379D01*
X181780943Y-96582379D02*
X181780943Y-96982379D01*
X167580943Y-112082379D02*
X160780943Y-112082379D01*
X181780943Y-86382379D02*
X181780943Y-86782379D01*
X181780943Y-109282379D02*
X181780943Y-109682379D01*
X181780943Y-63482379D02*
X181780943Y-63882379D01*
X163787943Y-63749379D02*
X163787943Y-61082379D01*
X181780943Y-81282379D02*
X181780943Y-81682379D01*
X160780943Y-61082379D02*
X181780943Y-61082379D01*
X160780943Y-106682379D02*
X160780943Y-107082379D01*
X160780943Y-83882379D02*
X160780943Y-84282379D01*
X160780943Y-109282379D02*
X160780943Y-109682379D01*
X160780943Y-71182379D02*
X160780943Y-71582379D01*
X160780943Y-81282379D02*
X160780943Y-81682379D01*
X181780943Y-83882379D02*
X181780943Y-84282379D01*
X181780943Y-112082379D02*
X174980943Y-112082379D01*
X181780943Y-71182379D02*
X181780943Y-71582379D01*
X160780943Y-93982379D02*
X160780943Y-94382379D01*
X160780943Y-63749379D02*
X163787943Y-63749379D01*
X160780943Y-78782379D02*
X160780943Y-79182379D01*
X160780943Y-91482379D02*
X160780943Y-91882379D01*
X169780943Y-112082379D02*
X170180943Y-112082379D01*
X160780943Y-73682379D02*
X160780943Y-74082379D01*
X181780943Y-66082379D02*
X181780943Y-66482379D01*
X160780943Y-101682379D02*
X160780943Y-102082379D01*
X172380943Y-112082379D02*
X172780943Y-112082379D01*
X181780943Y-73682379D02*
X181780943Y-74082379D01*
X160780943Y-96582379D02*
X160780943Y-96982379D01*
X181780943Y-88882379D02*
X181780943Y-89282379D01*
X160780943Y-76182379D02*
X160780943Y-76582379D01*
X160780943Y-86382379D02*
X160780943Y-86782379D01*
X160780943Y-104182379D02*
X160780943Y-104582379D01*
X160780943Y-99082379D02*
X160780943Y-99482379D01*
X181780943Y-93982379D02*
X181780943Y-94382379D01*
X181780943Y-76182379D02*
X181780943Y-76582379D01*
X181780943Y-104182379D02*
X181780943Y-104582379D01*
X181780943Y-78782379D02*
X181780943Y-79182379D01*
X160780943Y-61082379D02*
X160780943Y-61382379D01*
X181780943Y-106682379D02*
X181780943Y-107082379D01*
X181780943Y-99082379D02*
X181780943Y-99482379D01*
X181780943Y-68582379D02*
X181780943Y-68982379D01*
X160780943Y-88882379D02*
X160780943Y-89282379D01*
X181780943Y-61082379D02*
X181780943Y-61382379D01*
X160780943Y-68582379D02*
X160780943Y-68982379D01*
X181780943Y-101682379D02*
X181780943Y-102082379D01*
D10*
%TO.C,U2*%
X182203443Y-122602379D02*
X170103443Y-122602379D01*
X184203443Y-122352379D02*
X184203443Y-116752379D01*
X170103443Y-122602379D02*
X170103443Y-116502379D01*
X182203443Y-116752379D02*
X184203443Y-116752379D01*
X182203443Y-122352379D02*
X184203443Y-122352379D01*
X182203443Y-116502379D02*
X170103443Y-116502379D01*
X182203443Y-122602379D02*
X182203443Y-116502379D01*
%TD*%
M02*
