%TF.GenerationSoftware,KiCad,Pcbnew,(6.0.4)*%
%TF.CreationDate,2022-11-12T19:04:49-05:00*%
%TF.ProjectId,Chergo,43686572-676f-42e6-9b69-6361645f7063,rev?*%
%TF.SameCoordinates,Original*%
%TF.FileFunction,Legend,Bot*%
%TF.FilePolarity,Positive*%
%FSLAX46Y46*%
G04 Gerber Fmt 4.6, Leading zero omitted, Abs format (unit mm)*
G04 Created by KiCad (PCBNEW (6.0.4)) date 2022-11-12 19:04:49*
%MOMM*%
%LPD*%
G01*
G04 APERTURE LIST*
%ADD10C,0.150000*%
%ADD11C,0.120000*%
G04 APERTURE END LIST*
D10*
%TO.C,K17*%
X162312324Y-129817632D02*
X161889706Y-130723940D01*
X162830215Y-130059128D02*
X162200301Y-130395896D01*
X162407596Y-130965436D02*
X162131202Y-130206049D01*
X163693365Y-130461622D02*
X163175475Y-130220125D01*
X163434420Y-130340873D02*
X163011801Y-131247181D01*
X162985860Y-131077459D01*
X162939795Y-130950895D01*
X162873604Y-130867488D01*
X163572849Y-131508802D02*
X164177054Y-131790548D01*
X164211255Y-130703118D01*
%TO.C,K16*%
X139424817Y-121437932D02*
X139115800Y-122388988D01*
X139968277Y-121614513D02*
X139384101Y-122025538D01*
X139659260Y-122565569D02*
X139292381Y-121845527D01*
X140874046Y-121908815D02*
X140330585Y-121732234D01*
X140602315Y-121820524D02*
X140293298Y-122771581D01*
X140246867Y-122606285D01*
X140185720Y-122486278D01*
X140109858Y-122411560D01*
X141380220Y-123124743D02*
X141199066Y-123065883D01*
X141123205Y-122991164D01*
X141092631Y-122931161D01*
X141046200Y-122765865D01*
X141059772Y-122569996D01*
X141177492Y-122207689D01*
X141252211Y-122131827D01*
X141312214Y-122101254D01*
X141417506Y-122085396D01*
X141598660Y-122144256D01*
X141674522Y-122218975D01*
X141705095Y-122278978D01*
X141720953Y-122384270D01*
X141647378Y-122610712D01*
X141572659Y-122686574D01*
X141512656Y-122717147D01*
X141407364Y-122733006D01*
X141226210Y-122674145D01*
X141150348Y-122599427D01*
X141119775Y-122539423D01*
X141103917Y-122434131D01*
%TO.C,K15*%
X145961228Y-98669759D02*
X145961228Y-97669759D01*
X145389800Y-98669759D02*
X145818371Y-98098331D01*
X145389800Y-97669759D02*
X145961228Y-98241188D01*
X144437419Y-98669759D02*
X145008847Y-98669759D01*
X144723133Y-98669759D02*
X144723133Y-97669759D01*
X144818371Y-97812617D01*
X144913609Y-97907855D01*
X145008847Y-97955474D01*
X143532657Y-97669759D02*
X144008847Y-97669759D01*
X144056466Y-98145950D01*
X144008847Y-98098331D01*
X143913609Y-98050712D01*
X143675514Y-98050712D01*
X143580276Y-98098331D01*
X143532657Y-98145950D01*
X143485038Y-98241188D01*
X143485038Y-98479283D01*
X143532657Y-98574521D01*
X143580276Y-98622140D01*
X143675514Y-98669759D01*
X143913609Y-98669759D01*
X144008847Y-98622140D01*
X144056466Y-98574521D01*
%TO.C,K14*%
X126911228Y-95621759D02*
X126911228Y-94621759D01*
X126339800Y-95621759D02*
X126768371Y-95050331D01*
X126339800Y-94621759D02*
X126911228Y-95193188D01*
X125387419Y-95621759D02*
X125958847Y-95621759D01*
X125673133Y-95621759D02*
X125673133Y-94621759D01*
X125768371Y-94764617D01*
X125863609Y-94859855D01*
X125958847Y-94907474D01*
X124530276Y-94955093D02*
X124530276Y-95621759D01*
X124768371Y-94574140D02*
X125006466Y-95288426D01*
X124387419Y-95288426D01*
%TO.C,K13*%
X107861228Y-91303759D02*
X107861228Y-90303759D01*
X107289800Y-91303759D02*
X107718371Y-90732331D01*
X107289800Y-90303759D02*
X107861228Y-90875188D01*
X106337419Y-91303759D02*
X106908847Y-91303759D01*
X106623133Y-91303759D02*
X106623133Y-90303759D01*
X106718371Y-90446617D01*
X106813609Y-90541855D01*
X106908847Y-90589474D01*
X106004085Y-90303759D02*
X105385038Y-90303759D01*
X105718371Y-90684712D01*
X105575514Y-90684712D01*
X105480276Y-90732331D01*
X105432657Y-90779950D01*
X105385038Y-90875188D01*
X105385038Y-91113283D01*
X105432657Y-91208521D01*
X105480276Y-91256140D01*
X105575514Y-91303759D01*
X105861228Y-91303759D01*
X105956466Y-91256140D01*
X106004085Y-91208521D01*
%TO.C,K12*%
X88811228Y-95113759D02*
X88811228Y-94113759D01*
X88239800Y-95113759D02*
X88668371Y-94542331D01*
X88239800Y-94113759D02*
X88811228Y-94685188D01*
X87287419Y-95113759D02*
X87858847Y-95113759D01*
X87573133Y-95113759D02*
X87573133Y-94113759D01*
X87668371Y-94256617D01*
X87763609Y-94351855D01*
X87858847Y-94399474D01*
X86906466Y-94208998D02*
X86858847Y-94161379D01*
X86763609Y-94113759D01*
X86525514Y-94113759D01*
X86430276Y-94161379D01*
X86382657Y-94208998D01*
X86335038Y-94304236D01*
X86335038Y-94399474D01*
X86382657Y-94542331D01*
X86954085Y-95113759D01*
X86335038Y-95113759D01*
%TO.C,K11*%
X69761228Y-101971759D02*
X69761228Y-100971759D01*
X69189800Y-101971759D02*
X69618371Y-101400331D01*
X69189800Y-100971759D02*
X69761228Y-101543188D01*
X68237419Y-101971759D02*
X68808847Y-101971759D01*
X68523133Y-101971759D02*
X68523133Y-100971759D01*
X68618371Y-101114617D01*
X68713609Y-101209855D01*
X68808847Y-101257474D01*
X67285038Y-101971759D02*
X67856466Y-101971759D01*
X67570752Y-101971759D02*
X67570752Y-100971759D01*
X67665990Y-101114617D01*
X67761228Y-101209855D01*
X67856466Y-101257474D01*
%TO.C,K10*%
X145961228Y-79619759D02*
X145961228Y-78619759D01*
X145389800Y-79619759D02*
X145818371Y-79048331D01*
X145389800Y-78619759D02*
X145961228Y-79191188D01*
X144437419Y-79619759D02*
X145008847Y-79619759D01*
X144723133Y-79619759D02*
X144723133Y-78619759D01*
X144818371Y-78762617D01*
X144913609Y-78857855D01*
X145008847Y-78905474D01*
X143818371Y-78619759D02*
X143723133Y-78619759D01*
X143627895Y-78667379D01*
X143580276Y-78714998D01*
X143532657Y-78810236D01*
X143485038Y-79000712D01*
X143485038Y-79238807D01*
X143532657Y-79429283D01*
X143580276Y-79524521D01*
X143627895Y-79572140D01*
X143723133Y-79619759D01*
X143818371Y-79619759D01*
X143913609Y-79572140D01*
X143961228Y-79524521D01*
X144008847Y-79429283D01*
X144056466Y-79238807D01*
X144056466Y-79000712D01*
X144008847Y-78810236D01*
X143961228Y-78714998D01*
X143913609Y-78667379D01*
X143818371Y-78619759D01*
%TO.C,K9*%
X126435038Y-76571759D02*
X126435038Y-75571759D01*
X125863609Y-76571759D02*
X126292181Y-76000331D01*
X125863609Y-75571759D02*
X126435038Y-76143188D01*
X125387419Y-76571759D02*
X125196943Y-76571759D01*
X125101704Y-76524140D01*
X125054085Y-76476521D01*
X124958847Y-76333664D01*
X124911228Y-76143188D01*
X124911228Y-75762236D01*
X124958847Y-75666998D01*
X125006466Y-75619379D01*
X125101704Y-75571759D01*
X125292181Y-75571759D01*
X125387419Y-75619379D01*
X125435038Y-75666998D01*
X125482657Y-75762236D01*
X125482657Y-76000331D01*
X125435038Y-76095569D01*
X125387419Y-76143188D01*
X125292181Y-76190807D01*
X125101704Y-76190807D01*
X125006466Y-76143188D01*
X124958847Y-76095569D01*
X124911228Y-76000331D01*
%TO.C,K8*%
X107385038Y-72253759D02*
X107385038Y-71253759D01*
X106813609Y-72253759D02*
X107242181Y-71682331D01*
X106813609Y-71253759D02*
X107385038Y-71825188D01*
X106242181Y-71682331D02*
X106337419Y-71634712D01*
X106385038Y-71587093D01*
X106432657Y-71491855D01*
X106432657Y-71444236D01*
X106385038Y-71348998D01*
X106337419Y-71301379D01*
X106242181Y-71253759D01*
X106051704Y-71253759D01*
X105956466Y-71301379D01*
X105908847Y-71348998D01*
X105861228Y-71444236D01*
X105861228Y-71491855D01*
X105908847Y-71587093D01*
X105956466Y-71634712D01*
X106051704Y-71682331D01*
X106242181Y-71682331D01*
X106337419Y-71729950D01*
X106385038Y-71777569D01*
X106432657Y-71872807D01*
X106432657Y-72063283D01*
X106385038Y-72158521D01*
X106337419Y-72206140D01*
X106242181Y-72253759D01*
X106051704Y-72253759D01*
X105956466Y-72206140D01*
X105908847Y-72158521D01*
X105861228Y-72063283D01*
X105861228Y-71872807D01*
X105908847Y-71777569D01*
X105956466Y-71729950D01*
X106051704Y-71682331D01*
%TO.C,K7*%
X88335038Y-76063759D02*
X88335038Y-75063759D01*
X87763609Y-76063759D02*
X88192181Y-75492331D01*
X87763609Y-75063759D02*
X88335038Y-75635188D01*
X87430276Y-75063759D02*
X86763609Y-75063759D01*
X87192181Y-76063759D01*
%TO.C,K6*%
X69285038Y-82921759D02*
X69285038Y-81921759D01*
X68713609Y-82921759D02*
X69142181Y-82350331D01*
X68713609Y-81921759D02*
X69285038Y-82493188D01*
X67856466Y-81921759D02*
X68046943Y-81921759D01*
X68142181Y-81969379D01*
X68189800Y-82016998D01*
X68285038Y-82159855D01*
X68332657Y-82350331D01*
X68332657Y-82731283D01*
X68285038Y-82826521D01*
X68237419Y-82874140D01*
X68142181Y-82921759D01*
X67951704Y-82921759D01*
X67856466Y-82874140D01*
X67808847Y-82826521D01*
X67761228Y-82731283D01*
X67761228Y-82493188D01*
X67808847Y-82397950D01*
X67856466Y-82350331D01*
X67951704Y-82302712D01*
X68142181Y-82302712D01*
X68237419Y-82350331D01*
X68285038Y-82397950D01*
X68332657Y-82493188D01*
%TO.C,K5*%
X145485038Y-60569759D02*
X145485038Y-59569759D01*
X144913609Y-60569759D02*
X145342181Y-59998331D01*
X144913609Y-59569759D02*
X145485038Y-60141188D01*
X144008847Y-59569759D02*
X144485038Y-59569759D01*
X144532657Y-60045950D01*
X144485038Y-59998331D01*
X144389800Y-59950712D01*
X144151704Y-59950712D01*
X144056466Y-59998331D01*
X144008847Y-60045950D01*
X143961228Y-60141188D01*
X143961228Y-60379283D01*
X144008847Y-60474521D01*
X144056466Y-60522140D01*
X144151704Y-60569759D01*
X144389800Y-60569759D01*
X144485038Y-60522140D01*
X144532657Y-60474521D01*
%TO.C,K4*%
X126435038Y-57521759D02*
X126435038Y-56521759D01*
X125863609Y-57521759D02*
X126292181Y-56950331D01*
X125863609Y-56521759D02*
X126435038Y-57093188D01*
X125006466Y-56855093D02*
X125006466Y-57521759D01*
X125244562Y-56474140D02*
X125482657Y-57188426D01*
X124863609Y-57188426D01*
%TO.C,K3*%
X107385038Y-53203759D02*
X107385038Y-52203759D01*
X106813609Y-53203759D02*
X107242181Y-52632331D01*
X106813609Y-52203759D02*
X107385038Y-52775188D01*
X106480276Y-52203759D02*
X105861228Y-52203759D01*
X106194562Y-52584712D01*
X106051704Y-52584712D01*
X105956466Y-52632331D01*
X105908847Y-52679950D01*
X105861228Y-52775188D01*
X105861228Y-53013283D01*
X105908847Y-53108521D01*
X105956466Y-53156140D01*
X106051704Y-53203759D01*
X106337419Y-53203759D01*
X106432657Y-53156140D01*
X106480276Y-53108521D01*
%TO.C,K2*%
X88335038Y-57013759D02*
X88335038Y-56013759D01*
X87763609Y-57013759D02*
X88192181Y-56442331D01*
X87763609Y-56013759D02*
X88335038Y-56585188D01*
X87382657Y-56108998D02*
X87335038Y-56061379D01*
X87239800Y-56013759D01*
X87001704Y-56013759D01*
X86906466Y-56061379D01*
X86858847Y-56108998D01*
X86811228Y-56204236D01*
X86811228Y-56299474D01*
X86858847Y-56442331D01*
X87430276Y-57013759D01*
X86811228Y-57013759D01*
%TO.C,K1*%
X69285038Y-63871759D02*
X69285038Y-62871759D01*
X68713609Y-63871759D02*
X69142181Y-63300331D01*
X68713609Y-62871759D02*
X69285038Y-63443188D01*
X67761228Y-63871759D02*
X68332657Y-63871759D01*
X68046943Y-63871759D02*
X68046943Y-62871759D01*
X68142181Y-63014617D01*
X68237419Y-63109855D01*
X68332657Y-63157474D01*
%TO.C,U1*%
X155070790Y-72255286D02*
X155420976Y-72605472D01*
X155447914Y-72201411D01*
X155528726Y-72282224D01*
X155609538Y-72309161D01*
X155663413Y-72309161D01*
X155744225Y-72282224D01*
X155878912Y-72147537D01*
X155905849Y-72066724D01*
X155905849Y-72012850D01*
X155878912Y-71932037D01*
X155717288Y-71770413D01*
X155636475Y-71743476D01*
X155582601Y-71743476D01*
X155582601Y-72767097D02*
X156336848Y-72389973D01*
X155959724Y-73144220D01*
X156094411Y-73278907D02*
X156444597Y-73629094D01*
X156471535Y-73225033D01*
X156552347Y-73305845D01*
X156633159Y-73332782D01*
X156687034Y-73332782D01*
X156767846Y-73305845D01*
X156902533Y-73171158D01*
X156929471Y-73090346D01*
X156929471Y-73036471D01*
X156902533Y-72955659D01*
X156740909Y-72794034D01*
X156660097Y-72767097D01*
X156606222Y-72767097D01*
X154970665Y-102665286D02*
X154889853Y-102638349D01*
X154809040Y-102557537D01*
X154755166Y-102449787D01*
X154755166Y-102342037D01*
X154782103Y-102261225D01*
X154862915Y-102126538D01*
X154943727Y-102045726D01*
X155078414Y-101964914D01*
X155159227Y-101937976D01*
X155266976Y-101937976D01*
X155374726Y-101991851D01*
X155428601Y-102045726D01*
X155482475Y-102153476D01*
X155482475Y-102207350D01*
X155293914Y-102395912D01*
X155186164Y-102288163D01*
X155778787Y-102395912D02*
X155213101Y-102961598D01*
X155428601Y-103177097D01*
X155509413Y-103204034D01*
X155563288Y-103204034D01*
X155644100Y-103177097D01*
X155724912Y-103096285D01*
X155751849Y-103015472D01*
X155751849Y-102961598D01*
X155724912Y-102880785D01*
X155509413Y-102665286D01*
X156640784Y-103257909D02*
X156317535Y-102934660D01*
X156479159Y-103096285D02*
X155913474Y-103661970D01*
X155940411Y-103527283D01*
X155940411Y-103419533D01*
X155913474Y-103338721D01*
X156640784Y-103904407D02*
X156559971Y-103877469D01*
X156506097Y-103877469D01*
X156425284Y-103904407D01*
X156398347Y-103931344D01*
X156371410Y-104012156D01*
X156371410Y-104066031D01*
X156398347Y-104146843D01*
X156506097Y-104254593D01*
X156586909Y-104281530D01*
X156640784Y-104281530D01*
X156721596Y-104254593D01*
X156748533Y-104227655D01*
X156775471Y-104146843D01*
X156775471Y-104092968D01*
X156748533Y-104012156D01*
X156640784Y-103904407D01*
X156613846Y-103823594D01*
X156613846Y-103769720D01*
X156640784Y-103688907D01*
X156748533Y-103581158D01*
X156829345Y-103554220D01*
X156883220Y-103554220D01*
X156964032Y-103581158D01*
X157071782Y-103688907D01*
X157098719Y-103769720D01*
X157098719Y-103823594D01*
X157071782Y-103904407D01*
X156964032Y-104012156D01*
X156883220Y-104039094D01*
X156829345Y-104039094D01*
X156748533Y-104012156D01*
X154970665Y-89965286D02*
X154889853Y-89938349D01*
X154809040Y-89857537D01*
X154755166Y-89749787D01*
X154755166Y-89642037D01*
X154782103Y-89561225D01*
X154862915Y-89426538D01*
X154943727Y-89345726D01*
X155078414Y-89264914D01*
X155159227Y-89237976D01*
X155266976Y-89237976D01*
X155374726Y-89291851D01*
X155428601Y-89345726D01*
X155482475Y-89453476D01*
X155482475Y-89507350D01*
X155293914Y-89695912D01*
X155186164Y-89588163D01*
X155778787Y-89695912D02*
X155213101Y-90261598D01*
X155428601Y-90477097D01*
X155509413Y-90504034D01*
X155563288Y-90504034D01*
X155644100Y-90477097D01*
X155724912Y-90396285D01*
X155751849Y-90315472D01*
X155751849Y-90261598D01*
X155724912Y-90180785D01*
X155509413Y-89965286D01*
X155805724Y-90746471D02*
X155805724Y-90800346D01*
X155832662Y-90881158D01*
X155967349Y-91015845D01*
X156048161Y-91042782D01*
X156102036Y-91042782D01*
X156182848Y-91015845D01*
X156236723Y-90961970D01*
X156290597Y-90854220D01*
X156290597Y-90207723D01*
X156640784Y-90557909D01*
X156344472Y-91285219D02*
X156344472Y-91339094D01*
X156371410Y-91419906D01*
X156506097Y-91554593D01*
X156586909Y-91581530D01*
X156640784Y-91581530D01*
X156721596Y-91554593D01*
X156775471Y-91500718D01*
X156829345Y-91392968D01*
X156829345Y-90746471D01*
X157179532Y-91096657D01*
X181067101Y-105447723D02*
X180986289Y-105420785D01*
X180905477Y-105339973D01*
X180851602Y-105232224D01*
X180851602Y-105124474D01*
X180878540Y-105043662D01*
X180959352Y-104908975D01*
X181040164Y-104828163D01*
X181174851Y-104747350D01*
X181255663Y-104720413D01*
X181363413Y-104720413D01*
X181471162Y-104774288D01*
X181525037Y-104828163D01*
X181578912Y-104935912D01*
X181578912Y-104989787D01*
X181390350Y-105178349D01*
X181282601Y-105070599D01*
X181875223Y-105178349D02*
X181309538Y-105744034D01*
X182198472Y-105501598D01*
X181632787Y-106067283D01*
X182467846Y-105770972D02*
X181902161Y-106336657D01*
X182036848Y-106471344D01*
X182144597Y-106525219D01*
X182252347Y-106525219D01*
X182333159Y-106498281D01*
X182467846Y-106417469D01*
X182548658Y-106336657D01*
X182629471Y-106201970D01*
X182656408Y-106121158D01*
X182656408Y-106013408D01*
X182602533Y-105905659D01*
X182467846Y-105770972D01*
X181194039Y-64824660D02*
X181113227Y-64797723D01*
X181032414Y-64716911D01*
X180978540Y-64609161D01*
X180978540Y-64501411D01*
X181005477Y-64420599D01*
X181086289Y-64285912D01*
X181167101Y-64205100D01*
X181301788Y-64124288D01*
X181382601Y-64097350D01*
X181490350Y-64097350D01*
X181598100Y-64151225D01*
X181651975Y-64205100D01*
X181705849Y-64312850D01*
X181705849Y-64366724D01*
X181517288Y-64555286D01*
X181409538Y-64447537D01*
X182002161Y-64555286D02*
X181436475Y-65120972D01*
X181651975Y-65336471D01*
X181732787Y-65363408D01*
X181786662Y-65363408D01*
X181867474Y-65336471D01*
X181948286Y-65255659D01*
X181975223Y-65174846D01*
X181975223Y-65120972D01*
X181948286Y-65040159D01*
X181732787Y-64824660D01*
X182864158Y-65417283D02*
X182540909Y-65094034D01*
X182702533Y-65255659D02*
X182136848Y-65821344D01*
X182163785Y-65686657D01*
X182163785Y-65578907D01*
X182136848Y-65498095D01*
X181078665Y-102665286D02*
X180997853Y-102638349D01*
X180917040Y-102557537D01*
X180863166Y-102449787D01*
X180863166Y-102342037D01*
X180890103Y-102261225D01*
X180970915Y-102126538D01*
X181051727Y-102045726D01*
X181186414Y-101964914D01*
X181267227Y-101937976D01*
X181374976Y-101937976D01*
X181482726Y-101991851D01*
X181536601Y-102045726D01*
X181590475Y-102153476D01*
X181590475Y-102207350D01*
X181401914Y-102395912D01*
X181294164Y-102288163D01*
X181886787Y-102395912D02*
X181321101Y-102961598D01*
X181536601Y-103177097D01*
X181617413Y-103204034D01*
X181671288Y-103204034D01*
X181752100Y-103177097D01*
X181832912Y-103096285D01*
X181859849Y-103015472D01*
X181859849Y-102961598D01*
X181832912Y-102880785D01*
X181617413Y-102665286D01*
X182748784Y-103257909D02*
X182425535Y-102934660D01*
X182587159Y-103096285D02*
X182021474Y-103661970D01*
X182048411Y-103527283D01*
X182048411Y-103419533D01*
X182021474Y-103338721D01*
X182371660Y-104012156D02*
X182721846Y-104362342D01*
X182748784Y-103958281D01*
X182829596Y-104039094D01*
X182910408Y-104066031D01*
X182964283Y-104066031D01*
X183045095Y-104039094D01*
X183179782Y-103904407D01*
X183206719Y-103823594D01*
X183206719Y-103769720D01*
X183179782Y-103688907D01*
X183018158Y-103527283D01*
X182937345Y-103500346D01*
X182883471Y-103500346D01*
X155819318Y-87142443D02*
X155361382Y-87223256D01*
X155496069Y-86819195D02*
X154930384Y-87384880D01*
X155145883Y-87600379D01*
X155226695Y-87627317D01*
X155280570Y-87627317D01*
X155361382Y-87600379D01*
X155442194Y-87519567D01*
X155469132Y-87438755D01*
X155469132Y-87384880D01*
X155442194Y-87304068D01*
X155226695Y-87088569D01*
X155496069Y-87950566D02*
X155954005Y-87492630D01*
X156034817Y-87465692D01*
X156088692Y-87465692D01*
X156169504Y-87492630D01*
X156277254Y-87600379D01*
X156304191Y-87681191D01*
X156304191Y-87735066D01*
X156277254Y-87815878D01*
X155819318Y-88273814D01*
X156654378Y-87977503D02*
X156088692Y-88543188D01*
X156977626Y-88300752D01*
X156411941Y-88866437D01*
X181094039Y-62294660D02*
X181013227Y-62267723D01*
X180932414Y-62186911D01*
X180878540Y-62079161D01*
X180878540Y-61971411D01*
X180905477Y-61890599D01*
X180986289Y-61755912D01*
X181067101Y-61675100D01*
X181201788Y-61594288D01*
X181282601Y-61567350D01*
X181390350Y-61567350D01*
X181498100Y-61621225D01*
X181551975Y-61675100D01*
X181605849Y-61782850D01*
X181605849Y-61836724D01*
X181417288Y-62025286D01*
X181309538Y-61917537D01*
X181902161Y-62025286D02*
X181336475Y-62590972D01*
X181551975Y-62806471D01*
X181632787Y-62833408D01*
X181686662Y-62833408D01*
X181767474Y-62806471D01*
X181848286Y-62725659D01*
X181875223Y-62644846D01*
X181875223Y-62590972D01*
X181848286Y-62510159D01*
X181632787Y-62294660D01*
X182009910Y-63264407D02*
X182063785Y-63318281D01*
X182144597Y-63345219D01*
X182198472Y-63345219D01*
X182279284Y-63318281D01*
X182413971Y-63237469D01*
X182548658Y-63102782D01*
X182629471Y-62968095D01*
X182656408Y-62887283D01*
X182656408Y-62833408D01*
X182629471Y-62752596D01*
X182575596Y-62698721D01*
X182494784Y-62671784D01*
X182440909Y-62671784D01*
X182360097Y-62698721D01*
X182225410Y-62779533D01*
X182090723Y-62914220D01*
X182009910Y-63048907D01*
X181982973Y-63129720D01*
X181982973Y-63183594D01*
X182009910Y-63264407D01*
X181094039Y-90234660D02*
X181013227Y-90207723D01*
X180932414Y-90126911D01*
X180878540Y-90019161D01*
X180878540Y-89911411D01*
X180905477Y-89830599D01*
X180986289Y-89695912D01*
X181067101Y-89615100D01*
X181201788Y-89534288D01*
X181282601Y-89507350D01*
X181390350Y-89507350D01*
X181498100Y-89561225D01*
X181551975Y-89615100D01*
X181605849Y-89722850D01*
X181605849Y-89776724D01*
X181417288Y-89965286D01*
X181309538Y-89857537D01*
X181902161Y-89965286D02*
X181336475Y-90530972D01*
X181551975Y-90746471D01*
X181632787Y-90773408D01*
X181686662Y-90773408D01*
X181767474Y-90746471D01*
X181848286Y-90665659D01*
X181875223Y-90584846D01*
X181875223Y-90530972D01*
X181848286Y-90450159D01*
X181632787Y-90234660D01*
X182494784Y-90557909D02*
X182602533Y-90665659D01*
X182629471Y-90746471D01*
X182629471Y-90800346D01*
X182602533Y-90935033D01*
X182521721Y-91069720D01*
X182306222Y-91285219D01*
X182225410Y-91312156D01*
X182171535Y-91312156D01*
X182090723Y-91285219D01*
X181982973Y-91177469D01*
X181956036Y-91096657D01*
X181956036Y-91042782D01*
X181982973Y-90961970D01*
X182117660Y-90827283D01*
X182198472Y-90800346D01*
X182252347Y-90800346D01*
X182333159Y-90827283D01*
X182440909Y-90935033D01*
X182467846Y-91015845D01*
X182467846Y-91069720D01*
X182440909Y-91150532D01*
X181094039Y-72454660D02*
X181013227Y-72427723D01*
X180932414Y-72346911D01*
X180878540Y-72239161D01*
X180878540Y-72131411D01*
X180905477Y-72050599D01*
X180986289Y-71915912D01*
X181067101Y-71835100D01*
X181201788Y-71754288D01*
X181282601Y-71727350D01*
X181390350Y-71727350D01*
X181498100Y-71781225D01*
X181551975Y-71835100D01*
X181605849Y-71942850D01*
X181605849Y-71996724D01*
X181417288Y-72185286D01*
X181309538Y-72077537D01*
X181902161Y-72185286D02*
X181336475Y-72750972D01*
X181551975Y-72966471D01*
X181632787Y-72993408D01*
X181686662Y-72993408D01*
X181767474Y-72966471D01*
X181848286Y-72885659D01*
X181875223Y-72804846D01*
X181875223Y-72750972D01*
X181848286Y-72670159D01*
X181632787Y-72454660D01*
X181848286Y-73262782D02*
X182198472Y-73612968D01*
X182225410Y-73208907D01*
X182306222Y-73289720D01*
X182387034Y-73316657D01*
X182440909Y-73316657D01*
X182521721Y-73289720D01*
X182656408Y-73155033D01*
X182683345Y-73074220D01*
X182683345Y-73020346D01*
X182656408Y-72939533D01*
X182494784Y-72777909D01*
X182413971Y-72750972D01*
X182360097Y-72750972D01*
X155024540Y-79104914D02*
X155293914Y-79374288D01*
X155132289Y-78889415D02*
X154755166Y-79643662D01*
X155509413Y-79266538D01*
X155455538Y-80290159D02*
X155374726Y-80263222D01*
X155293914Y-80182410D01*
X155240039Y-80074660D01*
X155240039Y-79966911D01*
X155266976Y-79886098D01*
X155347788Y-79751411D01*
X155428601Y-79670599D01*
X155563288Y-79589787D01*
X155644100Y-79562850D01*
X155751849Y-79562850D01*
X155859599Y-79616724D01*
X155913474Y-79670599D01*
X155967349Y-79778349D01*
X155967349Y-79832224D01*
X155778787Y-80020785D01*
X155671037Y-79913036D01*
X156263660Y-80020785D02*
X155697975Y-80586471D01*
X156586909Y-80344034D01*
X156021223Y-80909720D01*
X156856283Y-80613408D02*
X156290597Y-81179094D01*
X156425284Y-81313781D01*
X156533034Y-81367655D01*
X156640784Y-81367655D01*
X156721596Y-81340718D01*
X156856283Y-81259906D01*
X156937095Y-81179094D01*
X157017907Y-81044407D01*
X157044845Y-80963594D01*
X157044845Y-80855845D01*
X156990970Y-80748095D01*
X156856283Y-80613408D01*
X154970665Y-100125286D02*
X154889853Y-100098349D01*
X154809040Y-100017537D01*
X154755166Y-99909787D01*
X154755166Y-99802037D01*
X154782103Y-99721225D01*
X154862915Y-99586538D01*
X154943727Y-99505726D01*
X155078414Y-99424914D01*
X155159227Y-99397976D01*
X155266976Y-99397976D01*
X155374726Y-99451851D01*
X155428601Y-99505726D01*
X155482475Y-99613476D01*
X155482475Y-99667350D01*
X155293914Y-99855912D01*
X155186164Y-99748163D01*
X155778787Y-99855912D02*
X155213101Y-100421598D01*
X155428601Y-100637097D01*
X155509413Y-100664034D01*
X155563288Y-100664034D01*
X155644100Y-100637097D01*
X155724912Y-100556285D01*
X155751849Y-100475472D01*
X155751849Y-100421598D01*
X155724912Y-100340785D01*
X155509413Y-100125286D01*
X156640784Y-100717909D02*
X156317535Y-100394660D01*
X156479159Y-100556285D02*
X155913474Y-101121970D01*
X155940411Y-100987283D01*
X155940411Y-100879533D01*
X155913474Y-100798721D01*
X156910158Y-100987283D02*
X157017907Y-101095033D01*
X157044845Y-101175845D01*
X157044845Y-101229720D01*
X157017907Y-101364407D01*
X156937095Y-101499094D01*
X156721596Y-101714593D01*
X156640784Y-101741530D01*
X156586909Y-101741530D01*
X156506097Y-101714593D01*
X156398347Y-101606843D01*
X156371410Y-101526031D01*
X156371410Y-101472156D01*
X156398347Y-101391344D01*
X156533034Y-101256657D01*
X156613846Y-101229720D01*
X156667721Y-101229720D01*
X156748533Y-101256657D01*
X156856283Y-101364407D01*
X156883220Y-101445219D01*
X156883220Y-101499094D01*
X156856283Y-101579906D01*
X180994039Y-85124660D02*
X180913227Y-85097723D01*
X180832414Y-85016911D01*
X180778540Y-84909161D01*
X180778540Y-84801411D01*
X180805477Y-84720599D01*
X180886289Y-84585912D01*
X180967101Y-84505100D01*
X181101788Y-84424288D01*
X181182601Y-84397350D01*
X181290350Y-84397350D01*
X181398100Y-84451225D01*
X181451975Y-84505100D01*
X181505849Y-84612850D01*
X181505849Y-84666724D01*
X181317288Y-84855286D01*
X181209538Y-84747537D01*
X181802161Y-84855286D02*
X181236475Y-85420972D01*
X181451975Y-85636471D01*
X181532787Y-85663408D01*
X181586662Y-85663408D01*
X181667474Y-85636471D01*
X181748286Y-85555659D01*
X181775223Y-85474846D01*
X181775223Y-85420972D01*
X181748286Y-85340159D01*
X181532787Y-85124660D01*
X181748286Y-85932782D02*
X182125410Y-86309906D01*
X182448658Y-85501784D01*
X155467101Y-105447723D02*
X155386289Y-105420785D01*
X155305477Y-105339973D01*
X155251602Y-105232224D01*
X155251602Y-105124474D01*
X155278540Y-105043662D01*
X155359352Y-104908975D01*
X155440164Y-104828163D01*
X155574851Y-104747350D01*
X155655663Y-104720413D01*
X155763413Y-104720413D01*
X155871162Y-104774288D01*
X155925037Y-104828163D01*
X155978912Y-104935912D01*
X155978912Y-104989787D01*
X155790350Y-105178349D01*
X155682601Y-105070599D01*
X156275223Y-105178349D02*
X155709538Y-105744034D01*
X156598472Y-105501598D01*
X156032787Y-106067283D01*
X156867846Y-105770972D02*
X156302161Y-106336657D01*
X156436848Y-106471344D01*
X156544597Y-106525219D01*
X156652347Y-106525219D01*
X156733159Y-106498281D01*
X156867846Y-106417469D01*
X156948658Y-106336657D01*
X157029471Y-106201970D01*
X157056408Y-106121158D01*
X157056408Y-106013408D01*
X157002533Y-105905659D01*
X156867846Y-105770972D01*
X154501416Y-64295912D02*
X155255663Y-63918789D01*
X154878540Y-64673036D01*
X155578912Y-64295912D02*
X155686662Y-64349787D01*
X155821349Y-64484474D01*
X155848286Y-64565286D01*
X155848286Y-64619161D01*
X155821349Y-64699973D01*
X155767474Y-64753848D01*
X155686662Y-64780785D01*
X155632787Y-64780785D01*
X155551975Y-64753848D01*
X155417288Y-64673036D01*
X155336475Y-64646098D01*
X155282601Y-64646098D01*
X155201788Y-64673036D01*
X155147914Y-64726911D01*
X155120976Y-64807723D01*
X155120976Y-64861598D01*
X155147914Y-64942410D01*
X155282601Y-65077097D01*
X155390350Y-65130972D01*
X156009910Y-65211784D02*
X156279284Y-64942410D01*
X155525037Y-65319533D02*
X156009910Y-65211784D01*
X155902161Y-65696657D01*
X156602533Y-65319533D02*
X156710283Y-65373408D01*
X156844970Y-65508095D01*
X156871907Y-65588907D01*
X156871907Y-65642782D01*
X156844970Y-65723594D01*
X156791095Y-65777469D01*
X156710283Y-65804407D01*
X156656408Y-65804407D01*
X156575596Y-65777469D01*
X156440909Y-65696657D01*
X156360097Y-65669720D01*
X156306222Y-65669720D01*
X156225410Y-65696657D01*
X156171535Y-65750532D01*
X156144597Y-65831344D01*
X156144597Y-65885219D01*
X156171535Y-65966031D01*
X156306222Y-66100718D01*
X156413971Y-66154593D01*
X181067101Y-92747723D02*
X180986289Y-92720785D01*
X180905477Y-92639973D01*
X180851602Y-92532224D01*
X180851602Y-92424474D01*
X180878540Y-92343662D01*
X180959352Y-92208975D01*
X181040164Y-92128163D01*
X181174851Y-92047350D01*
X181255663Y-92020413D01*
X181363413Y-92020413D01*
X181471162Y-92074288D01*
X181525037Y-92128163D01*
X181578912Y-92235912D01*
X181578912Y-92289787D01*
X181390350Y-92478349D01*
X181282601Y-92370599D01*
X181875223Y-92478349D02*
X181309538Y-93044034D01*
X182198472Y-92801598D01*
X181632787Y-93367283D01*
X182467846Y-93070972D02*
X181902161Y-93636657D01*
X182036848Y-93771344D01*
X182144597Y-93825219D01*
X182252347Y-93825219D01*
X182333159Y-93798281D01*
X182467846Y-93717469D01*
X182548658Y-93636657D01*
X182629471Y-93501970D01*
X182656408Y-93421158D01*
X182656408Y-93313408D01*
X182602533Y-93205659D01*
X182467846Y-93070972D01*
X181067101Y-80047723D02*
X180986289Y-80020785D01*
X180905477Y-79939973D01*
X180851602Y-79832224D01*
X180851602Y-79724474D01*
X180878540Y-79643662D01*
X180959352Y-79508975D01*
X181040164Y-79428163D01*
X181174851Y-79347350D01*
X181255663Y-79320413D01*
X181363413Y-79320413D01*
X181471162Y-79374288D01*
X181525037Y-79428163D01*
X181578912Y-79535912D01*
X181578912Y-79589787D01*
X181390350Y-79778349D01*
X181282601Y-79670599D01*
X181875223Y-79778349D02*
X181309538Y-80344034D01*
X182198472Y-80101598D01*
X181632787Y-80667283D01*
X182467846Y-80370972D02*
X181902161Y-80936657D01*
X182036848Y-81071344D01*
X182144597Y-81125219D01*
X182252347Y-81125219D01*
X182333159Y-81098281D01*
X182467846Y-81017469D01*
X182548658Y-80936657D01*
X182629471Y-80801970D01*
X182656408Y-80721158D01*
X182656408Y-80613408D01*
X182602533Y-80505659D01*
X182467846Y-80370972D01*
X154970665Y-110285286D02*
X154889853Y-110258349D01*
X154809040Y-110177537D01*
X154755166Y-110069787D01*
X154755166Y-109962037D01*
X154782103Y-109881225D01*
X154862915Y-109746538D01*
X154943727Y-109665726D01*
X155078414Y-109584914D01*
X155159227Y-109557976D01*
X155266976Y-109557976D01*
X155374726Y-109611851D01*
X155428601Y-109665726D01*
X155482475Y-109773476D01*
X155482475Y-109827350D01*
X155293914Y-110015912D01*
X155186164Y-109908163D01*
X155778787Y-110015912D02*
X155213101Y-110581598D01*
X155428601Y-110797097D01*
X155509413Y-110824034D01*
X155563288Y-110824034D01*
X155644100Y-110797097D01*
X155724912Y-110716285D01*
X155751849Y-110635472D01*
X155751849Y-110581598D01*
X155724912Y-110500785D01*
X155509413Y-110285286D01*
X156640784Y-110877909D02*
X156317535Y-110554660D01*
X156479159Y-110716285D02*
X155913474Y-111281970D01*
X155940411Y-111147283D01*
X155940411Y-111039533D01*
X155913474Y-110958721D01*
X156559971Y-111928468D02*
X156452222Y-111820718D01*
X156425284Y-111739906D01*
X156425284Y-111686031D01*
X156452222Y-111551344D01*
X156533034Y-111416657D01*
X156748533Y-111201158D01*
X156829345Y-111174220D01*
X156883220Y-111174220D01*
X156964032Y-111201158D01*
X157071782Y-111308907D01*
X157098719Y-111389720D01*
X157098719Y-111443594D01*
X157071782Y-111524407D01*
X156937095Y-111659094D01*
X156856283Y-111686031D01*
X156802408Y-111686031D01*
X156721596Y-111659094D01*
X156613846Y-111551344D01*
X156586909Y-111470532D01*
X156586909Y-111416657D01*
X156613846Y-111335845D01*
X181194039Y-69914660D02*
X181113227Y-69887723D01*
X181032414Y-69806911D01*
X180978540Y-69699161D01*
X180978540Y-69591411D01*
X181005477Y-69510599D01*
X181086289Y-69375912D01*
X181167101Y-69295100D01*
X181301788Y-69214288D01*
X181382601Y-69187350D01*
X181490350Y-69187350D01*
X181598100Y-69241225D01*
X181651975Y-69295100D01*
X181705849Y-69402850D01*
X181705849Y-69456724D01*
X181517288Y-69645286D01*
X181409538Y-69537537D01*
X182002161Y-69645286D02*
X181436475Y-70210972D01*
X181651975Y-70426471D01*
X181732787Y-70453408D01*
X181786662Y-70453408D01*
X181867474Y-70426471D01*
X181948286Y-70345659D01*
X181975223Y-70264846D01*
X181975223Y-70210972D01*
X181948286Y-70130159D01*
X181732787Y-69914660D01*
X182029098Y-70695845D02*
X182029098Y-70749720D01*
X182056036Y-70830532D01*
X182190723Y-70965219D01*
X182271535Y-70992156D01*
X182325410Y-70992156D01*
X182406222Y-70965219D01*
X182460097Y-70911344D01*
X182513971Y-70803594D01*
X182513971Y-70157097D01*
X182864158Y-70507283D01*
X181094039Y-74994660D02*
X181013227Y-74967723D01*
X180932414Y-74886911D01*
X180878540Y-74779161D01*
X180878540Y-74671411D01*
X180905477Y-74590599D01*
X180986289Y-74455912D01*
X181067101Y-74375100D01*
X181201788Y-74294288D01*
X181282601Y-74267350D01*
X181390350Y-74267350D01*
X181498100Y-74321225D01*
X181551975Y-74375100D01*
X181605849Y-74482850D01*
X181605849Y-74536724D01*
X181417288Y-74725286D01*
X181309538Y-74617537D01*
X181902161Y-74725286D02*
X181336475Y-75290972D01*
X181551975Y-75506471D01*
X181632787Y-75533408D01*
X181686662Y-75533408D01*
X181767474Y-75506471D01*
X181848286Y-75425659D01*
X181875223Y-75344846D01*
X181875223Y-75290972D01*
X181848286Y-75210159D01*
X181632787Y-74994660D01*
X182333159Y-75910532D02*
X182710283Y-75533408D01*
X181982973Y-75991344D02*
X182252347Y-75452596D01*
X182602533Y-75802782D01*
X181224665Y-97585286D02*
X181143853Y-97558349D01*
X181063040Y-97477537D01*
X181009166Y-97369787D01*
X181009166Y-97262037D01*
X181036103Y-97181225D01*
X181116915Y-97046538D01*
X181197727Y-96965726D01*
X181332414Y-96884914D01*
X181413227Y-96857976D01*
X181520976Y-96857976D01*
X181628726Y-96911851D01*
X181682601Y-96965726D01*
X181736475Y-97073476D01*
X181736475Y-97127350D01*
X181547914Y-97315912D01*
X181440164Y-97208163D01*
X182032787Y-97315912D02*
X181467101Y-97881598D01*
X181682601Y-98097097D01*
X181763413Y-98124034D01*
X181817288Y-98124034D01*
X181898100Y-98097097D01*
X181978912Y-98016285D01*
X182005849Y-97935472D01*
X182005849Y-97881598D01*
X181978912Y-97800785D01*
X181763413Y-97585286D01*
X182894784Y-98177909D02*
X182571535Y-97854660D01*
X182733159Y-98016285D02*
X182167474Y-98581970D01*
X182194411Y-98447283D01*
X182194411Y-98339533D01*
X182167474Y-98258721D01*
X183433532Y-98716657D02*
X183110283Y-98393408D01*
X183271907Y-98555033D02*
X182706222Y-99120718D01*
X182733159Y-98986031D01*
X182733159Y-98878281D01*
X182706222Y-98797469D01*
X154970665Y-97585286D02*
X154889853Y-97558349D01*
X154809040Y-97477537D01*
X154755166Y-97369787D01*
X154755166Y-97262037D01*
X154782103Y-97181225D01*
X154862915Y-97046538D01*
X154943727Y-96965726D01*
X155078414Y-96884914D01*
X155159227Y-96857976D01*
X155266976Y-96857976D01*
X155374726Y-96911851D01*
X155428601Y-96965726D01*
X155482475Y-97073476D01*
X155482475Y-97127350D01*
X155293914Y-97315912D01*
X155186164Y-97208163D01*
X155778787Y-97315912D02*
X155213101Y-97881598D01*
X155428601Y-98097097D01*
X155509413Y-98124034D01*
X155563288Y-98124034D01*
X155644100Y-98097097D01*
X155724912Y-98016285D01*
X155751849Y-97935472D01*
X155751849Y-97881598D01*
X155724912Y-97800785D01*
X155509413Y-97585286D01*
X155805724Y-98366471D02*
X155805724Y-98420346D01*
X155832662Y-98501158D01*
X155967349Y-98635845D01*
X156048161Y-98662782D01*
X156102036Y-98662782D01*
X156182848Y-98635845D01*
X156236723Y-98581970D01*
X156290597Y-98474220D01*
X156290597Y-97827723D01*
X156640784Y-98177909D01*
X156425284Y-99093781D02*
X156479159Y-99147655D01*
X156559971Y-99174593D01*
X156613846Y-99174593D01*
X156694658Y-99147655D01*
X156829345Y-99066843D01*
X156964032Y-98932156D01*
X157044845Y-98797469D01*
X157071782Y-98716657D01*
X157071782Y-98662782D01*
X157044845Y-98581970D01*
X156990970Y-98528095D01*
X156910158Y-98501158D01*
X156856283Y-98501158D01*
X156775471Y-98528095D01*
X156640784Y-98608907D01*
X156506097Y-98743594D01*
X156425284Y-98878281D01*
X156398347Y-98959094D01*
X156398347Y-99012968D01*
X156425284Y-99093781D01*
X181078665Y-95045286D02*
X180997853Y-95018349D01*
X180917040Y-94937537D01*
X180863166Y-94829787D01*
X180863166Y-94722037D01*
X180890103Y-94641225D01*
X180970915Y-94506538D01*
X181051727Y-94425726D01*
X181186414Y-94344914D01*
X181267227Y-94317976D01*
X181374976Y-94317976D01*
X181482726Y-94371851D01*
X181536601Y-94425726D01*
X181590475Y-94533476D01*
X181590475Y-94587350D01*
X181401914Y-94775912D01*
X181294164Y-94668163D01*
X181886787Y-94775912D02*
X181321101Y-95341598D01*
X181536601Y-95557097D01*
X181617413Y-95584034D01*
X181671288Y-95584034D01*
X181752100Y-95557097D01*
X181832912Y-95476285D01*
X181859849Y-95395472D01*
X181859849Y-95341598D01*
X181832912Y-95260785D01*
X181617413Y-95045286D01*
X182748784Y-95637909D02*
X182425535Y-95314660D01*
X182587159Y-95476285D02*
X182021474Y-96041970D01*
X182048411Y-95907283D01*
X182048411Y-95799533D01*
X182021474Y-95718721D01*
X182533284Y-96553781D02*
X182587159Y-96607655D01*
X182667971Y-96634593D01*
X182721846Y-96634593D01*
X182802658Y-96607655D01*
X182937345Y-96526843D01*
X183072032Y-96392156D01*
X183152845Y-96257469D01*
X183179782Y-96176657D01*
X183179782Y-96122782D01*
X183152845Y-96041970D01*
X183098970Y-95988095D01*
X183018158Y-95961158D01*
X182964283Y-95961158D01*
X182883471Y-95988095D01*
X182748784Y-96068907D01*
X182614097Y-96203594D01*
X182533284Y-96338281D01*
X182506347Y-96419094D01*
X182506347Y-96472968D01*
X182533284Y-96553781D01*
X154970665Y-82355286D02*
X154889853Y-82328349D01*
X154809040Y-82247537D01*
X154755166Y-82139787D01*
X154755166Y-82032037D01*
X154782103Y-81951225D01*
X154862915Y-81816538D01*
X154943727Y-81735726D01*
X155078414Y-81654914D01*
X155159227Y-81627976D01*
X155266976Y-81627976D01*
X155374726Y-81681851D01*
X155428601Y-81735726D01*
X155482475Y-81843476D01*
X155482475Y-81897350D01*
X155293914Y-82085912D01*
X155186164Y-81978163D01*
X155778787Y-82085912D02*
X155213101Y-82651598D01*
X155428601Y-82867097D01*
X155509413Y-82894034D01*
X155563288Y-82894034D01*
X155644100Y-82867097D01*
X155724912Y-82786285D01*
X155751849Y-82705472D01*
X155751849Y-82651598D01*
X155724912Y-82570785D01*
X155509413Y-82355286D01*
X155805724Y-83136471D02*
X155805724Y-83190346D01*
X155832662Y-83271158D01*
X155967349Y-83405845D01*
X156048161Y-83432782D01*
X156102036Y-83432782D01*
X156182848Y-83405845D01*
X156236723Y-83351970D01*
X156290597Y-83244220D01*
X156290597Y-82597723D01*
X156640784Y-82947909D01*
X156263660Y-83702156D02*
X156640784Y-84079280D01*
X156964032Y-83271158D01*
X181078665Y-110285286D02*
X180997853Y-110258349D01*
X180917040Y-110177537D01*
X180863166Y-110069787D01*
X180863166Y-109962037D01*
X180890103Y-109881225D01*
X180970915Y-109746538D01*
X181051727Y-109665726D01*
X181186414Y-109584914D01*
X181267227Y-109557976D01*
X181374976Y-109557976D01*
X181482726Y-109611851D01*
X181536601Y-109665726D01*
X181590475Y-109773476D01*
X181590475Y-109827350D01*
X181401914Y-110015912D01*
X181294164Y-109908163D01*
X181886787Y-110015912D02*
X181321101Y-110581598D01*
X181536601Y-110797097D01*
X181617413Y-110824034D01*
X181671288Y-110824034D01*
X181752100Y-110797097D01*
X181832912Y-110716285D01*
X181859849Y-110635472D01*
X181859849Y-110581598D01*
X181832912Y-110500785D01*
X181617413Y-110285286D01*
X182748784Y-110877909D02*
X182425535Y-110554660D01*
X182587159Y-110716285D02*
X182021474Y-111281970D01*
X182048411Y-111147283D01*
X182048411Y-111039533D01*
X182021474Y-110958721D01*
X182694909Y-111955405D02*
X182425535Y-111686031D01*
X182667971Y-111389720D01*
X182667971Y-111443594D01*
X182694909Y-111524407D01*
X182829596Y-111659094D01*
X182910408Y-111686031D01*
X182964283Y-111686031D01*
X183045095Y-111659094D01*
X183179782Y-111524407D01*
X183206719Y-111443594D01*
X183206719Y-111389720D01*
X183179782Y-111308907D01*
X183045095Y-111174220D01*
X182964283Y-111147283D01*
X182910408Y-111147283D01*
X154970665Y-84885286D02*
X154889853Y-84858349D01*
X154809040Y-84777537D01*
X154755166Y-84669787D01*
X154755166Y-84562037D01*
X154782103Y-84481225D01*
X154862915Y-84346538D01*
X154943727Y-84265726D01*
X155078414Y-84184914D01*
X155159227Y-84157976D01*
X155266976Y-84157976D01*
X155374726Y-84211851D01*
X155428601Y-84265726D01*
X155482475Y-84373476D01*
X155482475Y-84427350D01*
X155293914Y-84615912D01*
X155186164Y-84508163D01*
X155778787Y-84615912D02*
X155213101Y-85181598D01*
X155428601Y-85397097D01*
X155509413Y-85424034D01*
X155563288Y-85424034D01*
X155644100Y-85397097D01*
X155724912Y-85316285D01*
X155751849Y-85235472D01*
X155751849Y-85181598D01*
X155724912Y-85100785D01*
X155509413Y-84885286D01*
X155805724Y-85666471D02*
X155805724Y-85720346D01*
X155832662Y-85801158D01*
X155967349Y-85935845D01*
X156048161Y-85962782D01*
X156102036Y-85962782D01*
X156182848Y-85935845D01*
X156236723Y-85881970D01*
X156290597Y-85774220D01*
X156290597Y-85127723D01*
X156640784Y-85477909D01*
X156559971Y-86528468D02*
X156452222Y-86420718D01*
X156425284Y-86339906D01*
X156425284Y-86286031D01*
X156452222Y-86151344D01*
X156533034Y-86016657D01*
X156748533Y-85801158D01*
X156829345Y-85774220D01*
X156883220Y-85774220D01*
X156964032Y-85801158D01*
X157071782Y-85908907D01*
X157098719Y-85989720D01*
X157098719Y-86043594D01*
X157071782Y-86124407D01*
X156937095Y-86259094D01*
X156856283Y-86286031D01*
X156802408Y-86286031D01*
X156721596Y-86259094D01*
X156613846Y-86151344D01*
X156586909Y-86070532D01*
X156586909Y-86016657D01*
X156613846Y-85935845D01*
X181124665Y-107745286D02*
X181043853Y-107718349D01*
X180963040Y-107637537D01*
X180909166Y-107529787D01*
X180909166Y-107422037D01*
X180936103Y-107341225D01*
X181016915Y-107206538D01*
X181097727Y-107125726D01*
X181232414Y-107044914D01*
X181313227Y-107017976D01*
X181420976Y-107017976D01*
X181528726Y-107071851D01*
X181582601Y-107125726D01*
X181636475Y-107233476D01*
X181636475Y-107287350D01*
X181447914Y-107475912D01*
X181340164Y-107368163D01*
X181932787Y-107475912D02*
X181367101Y-108041598D01*
X181582601Y-108257097D01*
X181663413Y-108284034D01*
X181717288Y-108284034D01*
X181798100Y-108257097D01*
X181878912Y-108176285D01*
X181905849Y-108095472D01*
X181905849Y-108041598D01*
X181878912Y-107960785D01*
X181663413Y-107745286D01*
X182794784Y-108337909D02*
X182471535Y-108014660D01*
X182633159Y-108176285D02*
X182067474Y-108741970D01*
X182094411Y-108607283D01*
X182094411Y-108499533D01*
X182067474Y-108418721D01*
X182902533Y-109199906D02*
X183279657Y-108822782D01*
X182552347Y-109280718D02*
X182821721Y-108741970D01*
X183171907Y-109092156D01*
X153503074Y-68187570D02*
X153853260Y-68537756D01*
X153880198Y-68133695D01*
X153961010Y-68214508D01*
X154041822Y-68241445D01*
X154095697Y-68241445D01*
X154176509Y-68214508D01*
X154311196Y-68079821D01*
X154338133Y-67999008D01*
X154338133Y-67945134D01*
X154311196Y-67864321D01*
X154149572Y-67702697D01*
X154068759Y-67675760D01*
X154014885Y-67675760D01*
X154014885Y-68699381D02*
X154769132Y-68322257D01*
X154392008Y-69076504D01*
X154526695Y-69211191D02*
X154876881Y-69561378D01*
X154903819Y-69157317D01*
X154984631Y-69238129D01*
X155065443Y-69265066D01*
X155119318Y-69265066D01*
X155200130Y-69238129D01*
X155334817Y-69103442D01*
X155361755Y-69022630D01*
X155361755Y-68968755D01*
X155334817Y-68887943D01*
X155173193Y-68726318D01*
X155092381Y-68699381D01*
X155038506Y-68699381D01*
X155604191Y-69049567D02*
X156035190Y-69480566D01*
X155819691Y-69965439D02*
X156008252Y-70154001D01*
X156385376Y-69938501D02*
X156116002Y-69669127D01*
X155550317Y-70234813D01*
X155819691Y-70504187D01*
X156627813Y-70180938D02*
X156062127Y-70746623D01*
X156951061Y-70504187D01*
X156385376Y-71069872D01*
X181094039Y-77534660D02*
X181013227Y-77507723D01*
X180932414Y-77426911D01*
X180878540Y-77319161D01*
X180878540Y-77211411D01*
X180905477Y-77130599D01*
X180986289Y-76995912D01*
X181067101Y-76915100D01*
X181201788Y-76834288D01*
X181282601Y-76807350D01*
X181390350Y-76807350D01*
X181498100Y-76861225D01*
X181551975Y-76915100D01*
X181605849Y-77022850D01*
X181605849Y-77076724D01*
X181417288Y-77265286D01*
X181309538Y-77157537D01*
X181902161Y-77265286D02*
X181336475Y-77830972D01*
X181551975Y-78046471D01*
X181632787Y-78073408D01*
X181686662Y-78073408D01*
X181767474Y-78046471D01*
X181848286Y-77965659D01*
X181875223Y-77884846D01*
X181875223Y-77830972D01*
X181848286Y-77750159D01*
X181632787Y-77534660D01*
X182171535Y-78666031D02*
X181902161Y-78396657D01*
X182144597Y-78100346D01*
X182144597Y-78154220D01*
X182171535Y-78235033D01*
X182306222Y-78369720D01*
X182387034Y-78396657D01*
X182440909Y-78396657D01*
X182521721Y-78369720D01*
X182656408Y-78235033D01*
X182683345Y-78154220D01*
X182683345Y-78100346D01*
X182656408Y-78019533D01*
X182521721Y-77884846D01*
X182440909Y-77857909D01*
X182387034Y-77857909D01*
X181067101Y-67347723D02*
X180986289Y-67320785D01*
X180905477Y-67239973D01*
X180851602Y-67132224D01*
X180851602Y-67024474D01*
X180878540Y-66943662D01*
X180959352Y-66808975D01*
X181040164Y-66728163D01*
X181174851Y-66647350D01*
X181255663Y-66620413D01*
X181363413Y-66620413D01*
X181471162Y-66674288D01*
X181525037Y-66728163D01*
X181578912Y-66835912D01*
X181578912Y-66889787D01*
X181390350Y-67078349D01*
X181282601Y-66970599D01*
X181875223Y-67078349D02*
X181309538Y-67644034D01*
X182198472Y-67401598D01*
X181632787Y-67967283D01*
X182467846Y-67670972D02*
X181902161Y-68236657D01*
X182036848Y-68371344D01*
X182144597Y-68425219D01*
X182252347Y-68425219D01*
X182333159Y-68398281D01*
X182467846Y-68317469D01*
X182548658Y-68236657D01*
X182629471Y-68101970D01*
X182656408Y-68021158D01*
X182656408Y-67913408D01*
X182602533Y-67805659D01*
X182467846Y-67670972D01*
X153135731Y-72012105D02*
X153405105Y-72281479D01*
X153243480Y-71796606D02*
X152866357Y-72550853D01*
X153620604Y-72173729D01*
X153809166Y-72362291D02*
X153243480Y-72927976D01*
X153378167Y-73062663D01*
X153485917Y-73116538D01*
X153593666Y-73116538D01*
X153674479Y-73089601D01*
X153809166Y-73008789D01*
X153889978Y-72927976D01*
X153970790Y-72793289D01*
X153997727Y-72712477D01*
X153997727Y-72604728D01*
X153943853Y-72496978D01*
X153809166Y-72362291D01*
X154644225Y-73305100D02*
X154644225Y-73251225D01*
X154590350Y-73143476D01*
X154536475Y-73089601D01*
X154428726Y-73035726D01*
X154320976Y-73035726D01*
X154240164Y-73062663D01*
X154105477Y-73143476D01*
X154024665Y-73224288D01*
X153943853Y-73358975D01*
X153916915Y-73439787D01*
X153916915Y-73547537D01*
X153970790Y-73655286D01*
X154024665Y-73709161D01*
X154132414Y-73763036D01*
X154186289Y-73763036D01*
X154859724Y-73305100D02*
X155290723Y-73736098D01*
X154725037Y-74409533D02*
X155479284Y-74032410D01*
X155102161Y-74786657D01*
X156179657Y-74732782D02*
X155721721Y-74813594D01*
X155856408Y-74409533D02*
X155290723Y-74975219D01*
X155506222Y-75190718D01*
X155587034Y-75217655D01*
X155640909Y-75217655D01*
X155721721Y-75190718D01*
X155802533Y-75109906D01*
X155829471Y-75029094D01*
X155829471Y-74975219D01*
X155802533Y-74894407D01*
X155587034Y-74678907D01*
X156125782Y-75271530D02*
X156314344Y-75460092D01*
X156691467Y-75244593D02*
X156422093Y-74975219D01*
X155856408Y-75540904D01*
X156125782Y-75810278D01*
X156826154Y-75971903D02*
X156637593Y-75783341D01*
X156933904Y-75487029D02*
X156368219Y-76052715D01*
X156637593Y-76322089D01*
X154334072Y-61618569D02*
X155088320Y-61241445D01*
X154711196Y-61995692D01*
X155357694Y-62103442D02*
X155465443Y-62157317D01*
X155519318Y-62157317D01*
X155600130Y-62130379D01*
X155680943Y-62049567D01*
X155707880Y-61968755D01*
X155707880Y-61914880D01*
X155680943Y-61834068D01*
X155465443Y-61618569D01*
X154899758Y-62184254D01*
X155088320Y-62372816D01*
X155169132Y-62399753D01*
X155223007Y-62399753D01*
X155303819Y-62372816D01*
X155357694Y-62318941D01*
X155384631Y-62238129D01*
X155384631Y-62184254D01*
X155357694Y-62103442D01*
X155169132Y-61914880D01*
X155465443Y-62749940D02*
X155923379Y-62292004D01*
X156004191Y-62265066D01*
X156058066Y-62265066D01*
X156138878Y-62292004D01*
X156246628Y-62399753D01*
X156273565Y-62480566D01*
X156273565Y-62534440D01*
X156246628Y-62615253D01*
X155788692Y-63073188D01*
X156569877Y-62776877D02*
X156677626Y-62830752D01*
X156812313Y-62965439D01*
X156839251Y-63046251D01*
X156839251Y-63100126D01*
X156812313Y-63180938D01*
X156758439Y-63234813D01*
X156677626Y-63261750D01*
X156623752Y-63261750D01*
X156542939Y-63234813D01*
X156408252Y-63154001D01*
X156327440Y-63127063D01*
X156273565Y-63127063D01*
X156192753Y-63154001D01*
X156138878Y-63207875D01*
X156111941Y-63288688D01*
X156111941Y-63342562D01*
X156138878Y-63423375D01*
X156273565Y-63558062D01*
X156381315Y-63611936D01*
X155467101Y-67347723D02*
X155386289Y-67320785D01*
X155305477Y-67239973D01*
X155251602Y-67132224D01*
X155251602Y-67024474D01*
X155278540Y-66943662D01*
X155359352Y-66808975D01*
X155440164Y-66728163D01*
X155574851Y-66647350D01*
X155655663Y-66620413D01*
X155763413Y-66620413D01*
X155871162Y-66674288D01*
X155925037Y-66728163D01*
X155978912Y-66835912D01*
X155978912Y-66889787D01*
X155790350Y-67078349D01*
X155682601Y-66970599D01*
X156275223Y-67078349D02*
X155709538Y-67644034D01*
X156598472Y-67401598D01*
X156032787Y-67967283D01*
X156867846Y-67670972D02*
X156302161Y-68236657D01*
X156436848Y-68371344D01*
X156544597Y-68425219D01*
X156652347Y-68425219D01*
X156733159Y-68398281D01*
X156867846Y-68317469D01*
X156948658Y-68236657D01*
X157029471Y-68101970D01*
X157056408Y-68021158D01*
X157056408Y-67913408D01*
X157002533Y-67805659D01*
X156867846Y-67670972D01*
X155467101Y-92747723D02*
X155386289Y-92720785D01*
X155305477Y-92639973D01*
X155251602Y-92532224D01*
X155251602Y-92424474D01*
X155278540Y-92343662D01*
X155359352Y-92208975D01*
X155440164Y-92128163D01*
X155574851Y-92047350D01*
X155655663Y-92020413D01*
X155763413Y-92020413D01*
X155871162Y-92074288D01*
X155925037Y-92128163D01*
X155978912Y-92235912D01*
X155978912Y-92289787D01*
X155790350Y-92478349D01*
X155682601Y-92370599D01*
X156275223Y-92478349D02*
X155709538Y-93044034D01*
X156598472Y-92801598D01*
X156032787Y-93367283D01*
X156867846Y-93070972D02*
X156302161Y-93636657D01*
X156436848Y-93771344D01*
X156544597Y-93825219D01*
X156652347Y-93825219D01*
X156733159Y-93798281D01*
X156867846Y-93717469D01*
X156948658Y-93636657D01*
X157029471Y-93501970D01*
X157056408Y-93421158D01*
X157056408Y-93313408D01*
X157002533Y-93205659D01*
X156867846Y-93070972D01*
X154970665Y-77011286D02*
X154889853Y-76984349D01*
X154809040Y-76903537D01*
X154755166Y-76795787D01*
X154755166Y-76688037D01*
X154782103Y-76607225D01*
X154862915Y-76472538D01*
X154943727Y-76391726D01*
X155078414Y-76310914D01*
X155159227Y-76283976D01*
X155266976Y-76283976D01*
X155374726Y-76337851D01*
X155428601Y-76391726D01*
X155482475Y-76499476D01*
X155482475Y-76553350D01*
X155293914Y-76741912D01*
X155186164Y-76634163D01*
X155778787Y-76741912D02*
X155213101Y-77307598D01*
X155428601Y-77523097D01*
X155509413Y-77550034D01*
X155563288Y-77550034D01*
X155644100Y-77523097D01*
X155724912Y-77442285D01*
X155751849Y-77361472D01*
X155751849Y-77307598D01*
X155724912Y-77226785D01*
X155509413Y-77011286D01*
X155805724Y-77792471D02*
X155805724Y-77846346D01*
X155832662Y-77927158D01*
X155967349Y-78061845D01*
X156048161Y-78088782D01*
X156102036Y-78088782D01*
X156182848Y-78061845D01*
X156236723Y-78007970D01*
X156290597Y-77900220D01*
X156290597Y-77253723D01*
X156640784Y-77603909D01*
X156640784Y-78250407D02*
X156559971Y-78223469D01*
X156506097Y-78223469D01*
X156425284Y-78250407D01*
X156398347Y-78277344D01*
X156371410Y-78358156D01*
X156371410Y-78412031D01*
X156398347Y-78492843D01*
X156506097Y-78600593D01*
X156586909Y-78627530D01*
X156640784Y-78627530D01*
X156721596Y-78600593D01*
X156748533Y-78573655D01*
X156775471Y-78492843D01*
X156775471Y-78438968D01*
X156748533Y-78358156D01*
X156640784Y-78250407D01*
X156613846Y-78169594D01*
X156613846Y-78115720D01*
X156640784Y-78034907D01*
X156748533Y-77927158D01*
X156829345Y-77900220D01*
X156883220Y-77900220D01*
X156964032Y-77927158D01*
X157071782Y-78034907D01*
X157098719Y-78115720D01*
X157098719Y-78169594D01*
X157071782Y-78250407D01*
X156964032Y-78358156D01*
X156883220Y-78385094D01*
X156829345Y-78385094D01*
X156748533Y-78358156D01*
X181224665Y-100125286D02*
X181143853Y-100098349D01*
X181063040Y-100017537D01*
X181009166Y-99909787D01*
X181009166Y-99802037D01*
X181036103Y-99721225D01*
X181116915Y-99586538D01*
X181197727Y-99505726D01*
X181332414Y-99424914D01*
X181413227Y-99397976D01*
X181520976Y-99397976D01*
X181628726Y-99451851D01*
X181682601Y-99505726D01*
X181736475Y-99613476D01*
X181736475Y-99667350D01*
X181547914Y-99855912D01*
X181440164Y-99748163D01*
X182032787Y-99855912D02*
X181467101Y-100421598D01*
X181682601Y-100637097D01*
X181763413Y-100664034D01*
X181817288Y-100664034D01*
X181898100Y-100637097D01*
X181978912Y-100556285D01*
X182005849Y-100475472D01*
X182005849Y-100421598D01*
X181978912Y-100340785D01*
X181763413Y-100125286D01*
X182894784Y-100717909D02*
X182571535Y-100394660D01*
X182733159Y-100556285D02*
X182167474Y-101121970D01*
X182194411Y-100987283D01*
X182194411Y-100879533D01*
X182167474Y-100798721D01*
X182598472Y-101445219D02*
X182598472Y-101499094D01*
X182625410Y-101579906D01*
X182760097Y-101714593D01*
X182840909Y-101741530D01*
X182894784Y-101741530D01*
X182975596Y-101714593D01*
X183029471Y-101660718D01*
X183083345Y-101552968D01*
X183083345Y-100906471D01*
X183433532Y-101256657D01*
X154970665Y-95055286D02*
X154889853Y-95028349D01*
X154809040Y-94947537D01*
X154755166Y-94839787D01*
X154755166Y-94732037D01*
X154782103Y-94651225D01*
X154862915Y-94516538D01*
X154943727Y-94435726D01*
X155078414Y-94354914D01*
X155159227Y-94327976D01*
X155266976Y-94327976D01*
X155374726Y-94381851D01*
X155428601Y-94435726D01*
X155482475Y-94543476D01*
X155482475Y-94597350D01*
X155293914Y-94785912D01*
X155186164Y-94678163D01*
X155778787Y-94785912D02*
X155213101Y-95351598D01*
X155428601Y-95567097D01*
X155509413Y-95594034D01*
X155563288Y-95594034D01*
X155644100Y-95567097D01*
X155724912Y-95486285D01*
X155751849Y-95405472D01*
X155751849Y-95351598D01*
X155724912Y-95270785D01*
X155509413Y-95055286D01*
X155805724Y-95836471D02*
X155805724Y-95890346D01*
X155832662Y-95971158D01*
X155967349Y-96105845D01*
X156048161Y-96132782D01*
X156102036Y-96132782D01*
X156182848Y-96105845D01*
X156236723Y-96051970D01*
X156290597Y-95944220D01*
X156290597Y-95297723D01*
X156640784Y-95647909D01*
X157179532Y-96186657D02*
X156856283Y-95863408D01*
X157017907Y-96025033D02*
X156452222Y-96590718D01*
X156479159Y-96456031D01*
X156479159Y-96348281D01*
X156452222Y-96267469D01*
X154970665Y-107745286D02*
X154889853Y-107718349D01*
X154809040Y-107637537D01*
X154755166Y-107529787D01*
X154755166Y-107422037D01*
X154782103Y-107341225D01*
X154862915Y-107206538D01*
X154943727Y-107125726D01*
X155078414Y-107044914D01*
X155159227Y-107017976D01*
X155266976Y-107017976D01*
X155374726Y-107071851D01*
X155428601Y-107125726D01*
X155482475Y-107233476D01*
X155482475Y-107287350D01*
X155293914Y-107475912D01*
X155186164Y-107368163D01*
X155778787Y-107475912D02*
X155213101Y-108041598D01*
X155428601Y-108257097D01*
X155509413Y-108284034D01*
X155563288Y-108284034D01*
X155644100Y-108257097D01*
X155724912Y-108176285D01*
X155751849Y-108095472D01*
X155751849Y-108041598D01*
X155724912Y-107960785D01*
X155509413Y-107745286D01*
X156640784Y-108337909D02*
X156317535Y-108014660D01*
X156479159Y-108176285D02*
X155913474Y-108741970D01*
X155940411Y-108607283D01*
X155940411Y-108499533D01*
X155913474Y-108418721D01*
X156263660Y-109092156D02*
X156640784Y-109469280D01*
X156964032Y-108661158D01*
X181094039Y-87694660D02*
X181013227Y-87667723D01*
X180932414Y-87586911D01*
X180878540Y-87479161D01*
X180878540Y-87371411D01*
X180905477Y-87290599D01*
X180986289Y-87155912D01*
X181067101Y-87075100D01*
X181201788Y-86994288D01*
X181282601Y-86967350D01*
X181390350Y-86967350D01*
X181498100Y-87021225D01*
X181551975Y-87075100D01*
X181605849Y-87182850D01*
X181605849Y-87236724D01*
X181417288Y-87425286D01*
X181309538Y-87317537D01*
X181902161Y-87425286D02*
X181336475Y-87990972D01*
X181551975Y-88206471D01*
X181632787Y-88233408D01*
X181686662Y-88233408D01*
X181767474Y-88206471D01*
X181848286Y-88125659D01*
X181875223Y-88044846D01*
X181875223Y-87990972D01*
X181848286Y-87910159D01*
X181632787Y-87694660D01*
X182225410Y-88395033D02*
X182144597Y-88368095D01*
X182090723Y-88368095D01*
X182009910Y-88395033D01*
X181982973Y-88421970D01*
X181956036Y-88502782D01*
X181956036Y-88556657D01*
X181982973Y-88637469D01*
X182090723Y-88745219D01*
X182171535Y-88772156D01*
X182225410Y-88772156D01*
X182306222Y-88745219D01*
X182333159Y-88718281D01*
X182360097Y-88637469D01*
X182360097Y-88583594D01*
X182333159Y-88502782D01*
X182225410Y-88395033D01*
X182198472Y-88314220D01*
X182198472Y-88260346D01*
X182225410Y-88179533D01*
X182333159Y-88071784D01*
X182413971Y-88044846D01*
X182467846Y-88044846D01*
X182548658Y-88071784D01*
X182656408Y-88179533D01*
X182683345Y-88260346D01*
X182683345Y-88314220D01*
X182656408Y-88395033D01*
X182548658Y-88502782D01*
X182467846Y-88529720D01*
X182413971Y-88529720D01*
X182333159Y-88502782D01*
X181094039Y-82614660D02*
X181013227Y-82587723D01*
X180932414Y-82506911D01*
X180878540Y-82399161D01*
X180878540Y-82291411D01*
X180905477Y-82210599D01*
X180986289Y-82075912D01*
X181067101Y-81995100D01*
X181201788Y-81914288D01*
X181282601Y-81887350D01*
X181390350Y-81887350D01*
X181498100Y-81941225D01*
X181551975Y-81995100D01*
X181605849Y-82102850D01*
X181605849Y-82156724D01*
X181417288Y-82345286D01*
X181309538Y-82237537D01*
X181902161Y-82345286D02*
X181336475Y-82910972D01*
X181551975Y-83126471D01*
X181632787Y-83153408D01*
X181686662Y-83153408D01*
X181767474Y-83126471D01*
X181848286Y-83045659D01*
X181875223Y-82964846D01*
X181875223Y-82910972D01*
X181848286Y-82830159D01*
X181632787Y-82614660D01*
X182144597Y-83719094D02*
X182036848Y-83611344D01*
X182009910Y-83530532D01*
X182009910Y-83476657D01*
X182036848Y-83341970D01*
X182117660Y-83207283D01*
X182333159Y-82991784D01*
X182413971Y-82964846D01*
X182467846Y-82964846D01*
X182548658Y-82991784D01*
X182656408Y-83099533D01*
X182683345Y-83180346D01*
X182683345Y-83234220D01*
X182656408Y-83315033D01*
X182521721Y-83449720D01*
X182440909Y-83476657D01*
X182387034Y-83476657D01*
X182306222Y-83449720D01*
X182198472Y-83341970D01*
X182171535Y-83261158D01*
X182171535Y-83207283D01*
X182198472Y-83126471D01*
%TO.C,K17*%
X155924498Y-129826204D02*
X156347116Y-128919897D01*
X150430461Y-141608206D02*
X150853079Y-140701898D01*
X151336768Y-142030824D02*
X150430461Y-141608206D01*
X163541388Y-146618554D02*
X163118770Y-147524861D01*
X163118770Y-147524861D02*
X162212462Y-147102243D01*
X169035425Y-134836552D02*
X168612807Y-135742860D01*
X168129118Y-134413934D02*
X169035425Y-134836552D01*
X156347116Y-128919897D02*
X157253424Y-129342515D01*
%TO.C,K16*%
X133085649Y-122224921D02*
X133394666Y-121273864D01*
X129068428Y-134588656D02*
X129377445Y-133637599D01*
X130019485Y-134897673D02*
X129068428Y-134588656D01*
X142692237Y-137963837D02*
X142383220Y-138914894D01*
X142383220Y-138914894D02*
X141432163Y-138605877D01*
X146709458Y-125600102D02*
X146400441Y-126551159D01*
X145758401Y-125291085D02*
X146709458Y-125600102D01*
X133394666Y-121273864D02*
X134345723Y-121582881D01*
%TO.C,K15*%
X137746943Y-100472379D02*
X137746943Y-99472379D01*
X137746943Y-113472379D02*
X137746943Y-112472379D01*
X138746943Y-113472379D02*
X137746943Y-113472379D01*
X151746943Y-112472379D02*
X151746943Y-113472379D01*
X151746943Y-113472379D02*
X150746943Y-113472379D01*
X151746943Y-99472379D02*
X151746943Y-100472379D01*
X150746943Y-99472379D02*
X151746943Y-99472379D01*
X137746943Y-99472379D02*
X138746943Y-99472379D01*
%TO.C,K14*%
X118696943Y-97424379D02*
X118696943Y-96424379D01*
X118696943Y-110424379D02*
X118696943Y-109424379D01*
X119696943Y-110424379D02*
X118696943Y-110424379D01*
X132696943Y-109424379D02*
X132696943Y-110424379D01*
X132696943Y-110424379D02*
X131696943Y-110424379D01*
X132696943Y-96424379D02*
X132696943Y-97424379D01*
X131696943Y-96424379D02*
X132696943Y-96424379D01*
X118696943Y-96424379D02*
X119696943Y-96424379D01*
%TO.C,K13*%
X99646943Y-93106379D02*
X99646943Y-92106379D01*
X99646943Y-106106379D02*
X99646943Y-105106379D01*
X100646943Y-106106379D02*
X99646943Y-106106379D01*
X113646943Y-105106379D02*
X113646943Y-106106379D01*
X113646943Y-106106379D02*
X112646943Y-106106379D01*
X113646943Y-92106379D02*
X113646943Y-93106379D01*
X112646943Y-92106379D02*
X113646943Y-92106379D01*
X99646943Y-92106379D02*
X100646943Y-92106379D01*
%TO.C,K12*%
X80596943Y-96916379D02*
X80596943Y-95916379D01*
X80596943Y-109916379D02*
X80596943Y-108916379D01*
X81596943Y-109916379D02*
X80596943Y-109916379D01*
X94596943Y-108916379D02*
X94596943Y-109916379D01*
X94596943Y-109916379D02*
X93596943Y-109916379D01*
X94596943Y-95916379D02*
X94596943Y-96916379D01*
X93596943Y-95916379D02*
X94596943Y-95916379D01*
X80596943Y-95916379D02*
X81596943Y-95916379D01*
%TO.C,K11*%
X61546943Y-103774379D02*
X61546943Y-102774379D01*
X61546943Y-116774379D02*
X61546943Y-115774379D01*
X62546943Y-116774379D02*
X61546943Y-116774379D01*
X75546943Y-115774379D02*
X75546943Y-116774379D01*
X75546943Y-116774379D02*
X74546943Y-116774379D01*
X75546943Y-102774379D02*
X75546943Y-103774379D01*
X74546943Y-102774379D02*
X75546943Y-102774379D01*
X61546943Y-102774379D02*
X62546943Y-102774379D01*
%TO.C,K10*%
X137746943Y-81422379D02*
X137746943Y-80422379D01*
X137746943Y-94422379D02*
X137746943Y-93422379D01*
X138746943Y-94422379D02*
X137746943Y-94422379D01*
X151746943Y-93422379D02*
X151746943Y-94422379D01*
X151746943Y-94422379D02*
X150746943Y-94422379D01*
X151746943Y-80422379D02*
X151746943Y-81422379D01*
X150746943Y-80422379D02*
X151746943Y-80422379D01*
X137746943Y-80422379D02*
X138746943Y-80422379D01*
%TO.C,K9*%
X118696943Y-78374379D02*
X118696943Y-77374379D01*
X118696943Y-91374379D02*
X118696943Y-90374379D01*
X119696943Y-91374379D02*
X118696943Y-91374379D01*
X132696943Y-90374379D02*
X132696943Y-91374379D01*
X132696943Y-91374379D02*
X131696943Y-91374379D01*
X132696943Y-77374379D02*
X132696943Y-78374379D01*
X131696943Y-77374379D02*
X132696943Y-77374379D01*
X118696943Y-77374379D02*
X119696943Y-77374379D01*
%TO.C,K8*%
X99646943Y-74056379D02*
X99646943Y-73056379D01*
X99646943Y-87056379D02*
X99646943Y-86056379D01*
X100646943Y-87056379D02*
X99646943Y-87056379D01*
X113646943Y-86056379D02*
X113646943Y-87056379D01*
X113646943Y-87056379D02*
X112646943Y-87056379D01*
X113646943Y-73056379D02*
X113646943Y-74056379D01*
X112646943Y-73056379D02*
X113646943Y-73056379D01*
X99646943Y-73056379D02*
X100646943Y-73056379D01*
%TO.C,K7*%
X80596943Y-77866379D02*
X80596943Y-76866379D01*
X80596943Y-90866379D02*
X80596943Y-89866379D01*
X81596943Y-90866379D02*
X80596943Y-90866379D01*
X94596943Y-89866379D02*
X94596943Y-90866379D01*
X94596943Y-90866379D02*
X93596943Y-90866379D01*
X94596943Y-76866379D02*
X94596943Y-77866379D01*
X93596943Y-76866379D02*
X94596943Y-76866379D01*
X80596943Y-76866379D02*
X81596943Y-76866379D01*
%TO.C,K6*%
X61546943Y-84724379D02*
X61546943Y-83724379D01*
X61546943Y-97724379D02*
X61546943Y-96724379D01*
X62546943Y-97724379D02*
X61546943Y-97724379D01*
X75546943Y-96724379D02*
X75546943Y-97724379D01*
X75546943Y-97724379D02*
X74546943Y-97724379D01*
X75546943Y-83724379D02*
X75546943Y-84724379D01*
X74546943Y-83724379D02*
X75546943Y-83724379D01*
X61546943Y-83724379D02*
X62546943Y-83724379D01*
%TO.C,K5*%
X137746943Y-62372379D02*
X137746943Y-61372379D01*
X137746943Y-75372379D02*
X137746943Y-74372379D01*
X138746943Y-75372379D02*
X137746943Y-75372379D01*
X151746943Y-74372379D02*
X151746943Y-75372379D01*
X151746943Y-75372379D02*
X150746943Y-75372379D01*
X151746943Y-61372379D02*
X151746943Y-62372379D01*
X150746943Y-61372379D02*
X151746943Y-61372379D01*
X137746943Y-61372379D02*
X138746943Y-61372379D01*
%TO.C,K4*%
X118696943Y-59324379D02*
X118696943Y-58324379D01*
X118696943Y-72324379D02*
X118696943Y-71324379D01*
X119696943Y-72324379D02*
X118696943Y-72324379D01*
X132696943Y-71324379D02*
X132696943Y-72324379D01*
X132696943Y-72324379D02*
X131696943Y-72324379D01*
X132696943Y-58324379D02*
X132696943Y-59324379D01*
X131696943Y-58324379D02*
X132696943Y-58324379D01*
X118696943Y-58324379D02*
X119696943Y-58324379D01*
%TO.C,K3*%
X99646943Y-55006379D02*
X99646943Y-54006379D01*
X99646943Y-68006379D02*
X99646943Y-67006379D01*
X100646943Y-68006379D02*
X99646943Y-68006379D01*
X113646943Y-67006379D02*
X113646943Y-68006379D01*
X113646943Y-68006379D02*
X112646943Y-68006379D01*
X113646943Y-54006379D02*
X113646943Y-55006379D01*
X112646943Y-54006379D02*
X113646943Y-54006379D01*
X99646943Y-54006379D02*
X100646943Y-54006379D01*
%TO.C,K2*%
X80596943Y-58816379D02*
X80596943Y-57816379D01*
X80596943Y-71816379D02*
X80596943Y-70816379D01*
X81596943Y-71816379D02*
X80596943Y-71816379D01*
X94596943Y-70816379D02*
X94596943Y-71816379D01*
X94596943Y-71816379D02*
X93596943Y-71816379D01*
X94596943Y-57816379D02*
X94596943Y-58816379D01*
X93596943Y-57816379D02*
X94596943Y-57816379D01*
X80596943Y-57816379D02*
X81596943Y-57816379D01*
%TO.C,K1*%
X61546943Y-65674379D02*
X61546943Y-64674379D01*
X61546943Y-78674379D02*
X61546943Y-77674379D01*
X62546943Y-78674379D02*
X61546943Y-78674379D01*
X75546943Y-77674379D02*
X75546943Y-78674379D01*
X75546943Y-78674379D02*
X74546943Y-78674379D01*
X75546943Y-64674379D02*
X75546943Y-65674379D01*
X74546943Y-64674379D02*
X75546943Y-64674379D01*
X61546943Y-64674379D02*
X62546943Y-64674379D01*
D11*
%TO.C,U1*%
X179480943Y-61045879D02*
X158480943Y-61045879D01*
X158480943Y-112045879D02*
X165280943Y-112045879D01*
X158480943Y-101645879D02*
X158480943Y-102045879D01*
X179480943Y-93945879D02*
X179480943Y-94345879D01*
X158480943Y-61045879D02*
X158480943Y-61345879D01*
X179480943Y-76145879D02*
X179480943Y-76545879D01*
X158480943Y-106645879D02*
X158480943Y-107045879D01*
X172680943Y-112045879D02*
X179480943Y-112045879D01*
X179480943Y-104145879D02*
X179480943Y-104545879D01*
X158480943Y-83845879D02*
X158480943Y-84245879D01*
X158480943Y-86345879D02*
X158480943Y-86745879D01*
X158480943Y-63445879D02*
X158480943Y-63845879D01*
X179480943Y-109245879D02*
X179480943Y-109645879D01*
X158480943Y-104145879D02*
X158480943Y-104545879D01*
X158480943Y-81245879D02*
X158480943Y-81645879D01*
X179480943Y-96545879D02*
X179480943Y-96945879D01*
X158480943Y-88845879D02*
X158480943Y-89245879D01*
X158480943Y-99045879D02*
X158480943Y-99445879D01*
X179480943Y-99045879D02*
X179480943Y-99445879D01*
X179480943Y-86345879D02*
X179480943Y-86745879D01*
X179480943Y-78745879D02*
X179480943Y-79145879D01*
X158480943Y-73645879D02*
X158480943Y-74045879D01*
X167880943Y-112045879D02*
X167480943Y-112045879D01*
X179480943Y-73645879D02*
X179480943Y-74045879D01*
X176473943Y-63712879D02*
X176473943Y-61045879D01*
X179480943Y-68545879D02*
X179480943Y-68945879D01*
X179480943Y-106645879D02*
X179480943Y-107045879D01*
X158480943Y-78745879D02*
X158480943Y-79145879D01*
X179480943Y-63445879D02*
X179480943Y-63845879D01*
X179480943Y-83845879D02*
X179480943Y-84245879D01*
X158480943Y-71145879D02*
X158480943Y-71545879D01*
X158480943Y-93945879D02*
X158480943Y-94345879D01*
X179480943Y-71145879D02*
X179480943Y-71545879D01*
X170480943Y-112045879D02*
X170080943Y-112045879D01*
X179480943Y-66045879D02*
X179480943Y-66445879D01*
X158480943Y-66045879D02*
X158480943Y-66445879D01*
X179480943Y-61045879D02*
X179480943Y-61345879D01*
X158480943Y-76145879D02*
X158480943Y-76545879D01*
X179480943Y-81245879D02*
X179480943Y-81645879D01*
X158480943Y-109245879D02*
X158480943Y-109645879D01*
X179480943Y-101645879D02*
X179480943Y-102045879D01*
X158480943Y-91445879D02*
X158480943Y-91845879D01*
X179480943Y-88845879D02*
X179480943Y-89245879D01*
X158480943Y-96545879D02*
X158480943Y-96945879D01*
X179480943Y-63712879D02*
X176473943Y-63712879D01*
X158480943Y-68545879D02*
X158480943Y-68945879D01*
X179480943Y-91445879D02*
X179480943Y-91845879D01*
D10*
%TO.C,U2*%
X170103443Y-114402379D02*
X170103443Y-120502379D01*
X182203443Y-120502379D02*
X170103443Y-120502379D01*
X184203443Y-114652379D02*
X184203443Y-120252379D01*
X182203443Y-114402379D02*
X182203443Y-120502379D01*
X182203443Y-114402379D02*
X170103443Y-114402379D01*
X182203443Y-120252379D02*
X184203443Y-120252379D01*
X182203443Y-114652379D02*
X184203443Y-114652379D01*
%TD*%
M02*
