M48
; DRILL file {KiCad (6.0.4)} date Tue Nov 15 10:20:30 2022
; FORMAT={-:-/ absolute / metric / decimal}
; #@! TF.CreationDate,2022-11-15T10:20:30-05:00
; #@! TF.GenerationSoftware,Kicad,Pcbnew,(6.0.4)
; #@! TF.FileFunction,Plated,1,2,PTH
FMAT,2
METRIC
; #@! TA.AperFunction,Plated,PTH,ViaDrill
T1C0.400
; #@! TA.AperFunction,Plated,PTH,ComponentDrill
T2C0.900
; #@! TA.AperFunction,Plated,PTH,ComponentDrill
T3C1.020
; #@! TA.AperFunction,Plated,PTH,ComponentDrill
T4C1.499
%
G90
G05
T1
X167.066Y-109.347
X168.265Y-104.267
T3
X160.091Y-62.416
X160.091Y-64.956
X160.091Y-67.496
X160.091Y-70.036
X160.091Y-72.576
X160.091Y-75.116
X160.091Y-77.656
X160.091Y-80.196
X160.091Y-82.736
X160.091Y-85.276
X160.091Y-87.816
X160.091Y-90.356
X160.091Y-92.896
X160.091Y-95.436
X160.091Y-97.976
X160.091Y-100.516
X160.091Y-103.056
X160.091Y-105.596
X160.091Y-108.136
X160.091Y-110.676
X162.391Y-62.452
X162.391Y-64.992
X162.391Y-67.532
X162.391Y-70.072
X162.391Y-72.612
X162.391Y-75.152
X162.391Y-77.692
X162.391Y-80.232
X162.391Y-82.772
X162.391Y-85.312
X162.391Y-87.852
X162.391Y-90.392
X162.391Y-92.932
X162.391Y-95.472
X162.391Y-98.012
X162.391Y-100.552
X162.391Y-103.092
X162.391Y-105.632
X162.391Y-108.172
X162.391Y-110.712
X177.871Y-62.416
X177.871Y-64.956
X177.871Y-67.496
X177.871Y-70.036
X177.871Y-72.576
X177.871Y-75.116
X177.871Y-77.656
X177.871Y-80.196
X177.871Y-82.736
X177.871Y-85.276
X177.871Y-87.816
X177.871Y-90.356
X177.871Y-92.896
X177.871Y-95.436
X177.871Y-97.976
X177.871Y-100.516
X177.871Y-103.056
X177.871Y-105.596
X177.871Y-108.136
X177.871Y-110.676
X180.171Y-62.452
X180.171Y-64.992
X180.171Y-67.532
X180.171Y-70.072
X180.171Y-72.612
X180.171Y-75.152
X180.171Y-77.692
X180.171Y-80.232
X180.171Y-82.772
X180.171Y-85.312
X180.171Y-87.852
X180.171Y-90.392
X180.171Y-92.932
X180.171Y-95.472
X180.171Y-98.012
X180.171Y-100.552
X180.171Y-103.092
X180.171Y-105.632
X180.171Y-108.172
X180.171Y-110.712
T4
X64.737Y-69.134
X64.737Y-88.184
X64.737Y-107.234
X66.007Y-66.594
X66.007Y-85.644
X66.007Y-104.694
X71.087Y-66.594
X71.087Y-85.644
X71.087Y-104.694
X72.357Y-69.134
X72.357Y-88.184
X72.357Y-107.234
X83.787Y-62.276
X83.787Y-81.326
X83.787Y-100.376
X85.057Y-59.736
X85.057Y-78.786
X85.057Y-97.836
X90.137Y-59.736
X90.137Y-78.786
X90.137Y-97.836
X91.407Y-62.276
X91.407Y-81.326
X91.407Y-100.376
X102.837Y-58.466
X102.837Y-77.516
X102.837Y-96.566
X104.107Y-55.926
X104.107Y-74.976
X104.107Y-94.026
X109.187Y-55.926
X109.187Y-74.976
X109.187Y-94.026
X110.457Y-58.466
X110.457Y-77.516
X110.457Y-96.566
X121.887Y-62.784
X121.887Y-81.834
X121.887Y-100.884
X123.157Y-60.244
X123.157Y-79.294
X123.157Y-98.344
X128.237Y-60.244
X128.237Y-79.294
X128.237Y-98.344
X129.507Y-62.784
X129.507Y-81.834
X129.507Y-100.884
X135.05Y-126.501
X137.043Y-124.478
X140.937Y-65.832
X140.937Y-84.882
X140.937Y-103.932
X141.874Y-126.048
X142.207Y-63.292
X142.207Y-82.342
X142.207Y-101.392
X142.297Y-128.856
X147.287Y-63.292
X147.287Y-82.342
X147.287Y-101.392
X148.557Y-65.832
X148.557Y-84.882
X148.557Y-103.932
X157.353Y-134.31
X159.578Y-132.545
X164.182Y-134.692
X164.259Y-137.531
T2
X171.103Y-117.252G85X170.703Y-117.252
G05
X171.103Y-119.752G85X170.703Y-119.752
G05
X172.203Y-115.152G85X171.803Y-115.152
G05
X172.203Y-121.852G85X171.803Y-121.852
G05
X176.203Y-115.152G85X175.803Y-115.152
G05
X176.203Y-121.852G85X175.803Y-121.852
G05
X179.203Y-115.152G85X178.803Y-115.152
G05
X179.203Y-121.852G85X178.803Y-121.852
G05
T0
M30
