M48
; DRILL file {KiCad (6.0.4)} date Tue Nov 15 10:20:30 2022
; FORMAT={-:-/ absolute / metric / decimal}
; #@! TF.CreationDate,2022-11-15T10:20:30-05:00
; #@! TF.GenerationSoftware,Kicad,Pcbnew,(6.0.4)
; #@! TF.FileFunction,NonPlated,1,2,NPTH
FMAT,2
METRIC
; #@! TA.AperFunction,NonPlated,NPTH,ComponentDrill
T1C0.800
; #@! TA.AperFunction,NonPlated,NPTH,ComponentDrill
T2C1.702
; #@! TA.AperFunction,NonPlated,NPTH,ComponentDrill
T3C3.988
%
G90
G05
T1
X173.603Y-117.452
X173.603Y-119.552
X180.603Y-117.452
X180.603Y-119.552
T2
X63.467Y-71.674
X63.467Y-90.724
X63.467Y-109.774
X73.627Y-71.674
X73.627Y-90.724
X73.627Y-109.774
X82.517Y-64.816
X82.517Y-83.866
X82.517Y-102.916
X92.677Y-64.816
X92.677Y-83.866
X92.677Y-102.916
X101.567Y-61.006
X101.567Y-80.056
X101.567Y-99.106
X111.727Y-61.006
X111.727Y-80.056
X111.727Y-99.106
X120.617Y-65.324
X120.617Y-84.374
X120.617Y-103.424
X130.777Y-65.324
X130.777Y-84.374
X130.777Y-103.424
X133.058Y-128.525
X139.667Y-68.372
X139.667Y-87.422
X139.667Y-106.472
X142.72Y-131.664
X149.827Y-68.372
X149.827Y-87.422
X149.827Y-106.472
X155.129Y-136.075
X164.337Y-140.369
T3
X68.547Y-71.674
X68.547Y-90.724
X68.547Y-109.774
X87.597Y-64.816
X87.597Y-83.866
X87.597Y-102.916
X106.647Y-61.006
X106.647Y-80.056
X106.647Y-99.106
X125.697Y-65.324
X125.697Y-84.374
X125.697Y-103.424
X137.889Y-130.094
X144.747Y-68.372
X144.747Y-87.422
X144.747Y-106.472
X159.733Y-138.222
T0
M30
