%TF.GenerationSoftware,KiCad,Pcbnew,(6.0.4)*%
%TF.CreationDate,2022-11-15T10:20:27-05:00*%
%TF.ProjectId,Chergo,43686572-676f-42e6-9b69-6361645f7063,rev?*%
%TF.SameCoordinates,Original*%
%TF.FileFunction,OtherDrawing,Comment*%
%FSLAX46Y46*%
G04 Gerber Fmt 4.6, Leading zero omitted, Abs format (unit mm)*
G04 Created by KiCad (PCBNEW (6.0.4)) date 2022-11-15 10:20:27*
%MOMM*%
%LPD*%
G01*
G04 APERTURE LIST*
%ADD10C,0.150000*%
%ADD11C,0.100000*%
G04 APERTURE END LIST*
D10*
%TO.C,U2*%
X166439823Y-119808283D02*
X167249347Y-119808283D01*
X167344585Y-119760664D01*
X167392204Y-119713045D01*
X167439823Y-119617807D01*
X167439823Y-119427331D01*
X167392204Y-119332093D01*
X167344585Y-119284474D01*
X167249347Y-119236855D01*
X166439823Y-119236855D01*
X166535062Y-118808283D02*
X166487443Y-118760664D01*
X166439823Y-118665426D01*
X166439823Y-118427331D01*
X166487443Y-118332093D01*
X166535062Y-118284474D01*
X166630300Y-118236855D01*
X166725538Y-118236855D01*
X166868395Y-118284474D01*
X167439823Y-118855902D01*
X167439823Y-118236855D01*
%TO.C,U1*%
G36*
X172480943Y-75045879D02*
G01*
X170480943Y-75045879D01*
X170480943Y-73045879D01*
X172480943Y-73045879D01*
X172480943Y-75045879D01*
G37*
D11*
X172480943Y-75045879D02*
X170480943Y-75045879D01*
X170480943Y-73045879D01*
X172480943Y-73045879D01*
X172480943Y-75045879D01*
G36*
X169780943Y-75082379D02*
G01*
X167780943Y-75082379D01*
X167780943Y-73082379D01*
X169780943Y-73082379D01*
X169780943Y-75082379D01*
G37*
X169780943Y-75082379D02*
X167780943Y-75082379D01*
X167780943Y-73082379D01*
X169780943Y-73082379D01*
X169780943Y-75082379D01*
G36*
X172480943Y-70045879D02*
G01*
X170480943Y-70045879D01*
X170480943Y-68045879D01*
X172480943Y-68045879D01*
X172480943Y-70045879D01*
G37*
X172480943Y-70045879D02*
X170480943Y-70045879D01*
X170480943Y-68045879D01*
X172480943Y-68045879D01*
X172480943Y-70045879D01*
G36*
X169780943Y-72582379D02*
G01*
X167780943Y-72582379D01*
X167780943Y-70582379D01*
X169780943Y-70582379D01*
X169780943Y-72582379D01*
G37*
X169780943Y-72582379D02*
X167780943Y-72582379D01*
X167780943Y-70582379D01*
X169780943Y-70582379D01*
X169780943Y-72582379D01*
G36*
X169780943Y-70082379D02*
G01*
X167780943Y-70082379D01*
X167780943Y-68082379D01*
X169780943Y-68082379D01*
X169780943Y-70082379D01*
G37*
X169780943Y-70082379D02*
X167780943Y-70082379D01*
X167780943Y-68082379D01*
X169780943Y-68082379D01*
X169780943Y-70082379D01*
G36*
X172680943Y-66345879D02*
G01*
X165280943Y-66345879D01*
X165280943Y-61645879D01*
X172680943Y-61645879D01*
X172680943Y-66345879D01*
G37*
X172680943Y-66345879D02*
X165280943Y-66345879D01*
X165280943Y-61645879D01*
X172680943Y-61645879D01*
X172680943Y-66345879D01*
G36*
X172480943Y-72545879D02*
G01*
X170480943Y-72545879D01*
X170480943Y-70545879D01*
X172480943Y-70545879D01*
X172480943Y-72545879D01*
G37*
X172480943Y-72545879D02*
X170480943Y-72545879D01*
X170480943Y-70545879D01*
X172480943Y-70545879D01*
X172480943Y-72545879D01*
G36*
X174980943Y-66382379D02*
G01*
X167580943Y-66382379D01*
X167580943Y-61682379D01*
X174980943Y-61682379D01*
X174980943Y-66382379D01*
G37*
X174980943Y-66382379D02*
X167580943Y-66382379D01*
X167580943Y-61682379D01*
X174980943Y-61682379D01*
X174980943Y-66382379D01*
%TD*%
M02*
